<svg width="230" height="38" viewBox="0 0 230 38" fill="none" xmlns="http://www.w3.org/2000/svg">
<rect y="30" width="230" height="8" fill="#0069FF"/>
<mask id="path-2-outside-1_4078_504" maskUnits="userSpaceOnUse" x="30" y="0" width="171" height="36" fill="black">
<rect fill="white" x="30" width="171" height="36"/>
<path d="M33.32 17.92C33.32 15.1467 33.92 12.68 35.12 10.52C36.32 8.33333 37.9867 6.64 40.12 5.44C42.28 4.21333 44.72 3.6 47.44 3.6C50.7733 3.6 53.6267 4.48 56 6.24C58.3733 8 59.96 10.4 60.76 13.44H53.24C52.68 12.2667 51.88 11.3733 50.84 10.76C49.8267 10.1467 48.6667 9.84 47.36 9.84C45.2533 9.84 43.5467 10.5733 42.24 12.04C40.9333 13.5067 40.28 15.4667 40.28 17.92C40.28 20.3733 40.9333 22.3333 42.24 23.8C43.5467 25.2667 45.2533 26 47.36 26C48.6667 26 49.8267 25.6933 50.84 25.08C51.88 24.4667 52.68 23.5733 53.24 22.4H60.76C59.96 25.44 58.3733 27.84 56 29.6C53.6267 31.3333 50.7733 32.2 47.44 32.2C44.72 32.2 42.28 31.6 40.12 30.4C37.9867 29.1733 36.32 27.48 35.12 25.32C33.92 23.16 33.32 20.6933 33.32 17.92ZM75.1088 32.32C72.9221 32.32 70.9488 31.8533 69.1888 30.92C67.4554 29.9867 66.0821 28.6533 65.0688 26.92C64.0821 25.1867 63.5888 23.16 63.5888 20.84C63.5888 18.5467 64.0954 16.5333 65.1087 14.8C66.1221 13.04 67.5088 11.6933 69.2688 10.76C71.0288 9.82667 73.0021 9.36 75.1888 9.36C77.3754 9.36 79.3488 9.82667 81.1088 10.76C82.8688 11.6933 84.2554 13.04 85.2688 14.8C86.2821 16.5333 86.7888 18.5467 86.7888 20.84C86.7888 23.1333 86.2688 25.16 85.2288 26.92C84.2154 28.6533 82.8154 29.9867 81.0288 30.92C79.2688 31.8533 77.2954 32.32 75.1088 32.32ZM75.1088 26.4C76.4154 26.4 77.5221 25.92 78.4288 24.96C79.3621 24 79.8288 22.6267 79.8288 20.84C79.8288 19.0533 79.3754 17.68 78.4688 16.72C77.5888 15.76 76.4954 15.28 75.1888 15.28C73.8554 15.28 72.7488 15.76 71.8688 16.72C70.9888 17.6533 70.5488 19.0267 70.5488 20.84C70.5488 22.6267 70.9754 24 71.8288 24.96C72.7088 25.92 73.8021 26.4 75.1088 26.4ZM104.018 9.44C106.631 9.44 108.711 10.2933 110.258 12C111.831 13.68 112.618 16 112.618 18.96V32H105.818V19.88C105.818 18.3867 105.431 17.2267 104.658 16.4C103.884 15.5733 102.844 15.16 101.538 15.16C100.231 15.16 99.1908 15.5733 98.4175 16.4C97.6442 17.2267 97.2575 18.3867 97.2575 19.88V32H90.4175V9.68H97.2575V12.64C97.9508 11.6533 98.8842 10.88 100.058 10.32C101.231 9.73333 102.551 9.44 104.018 9.44ZM129.811 26.2V32H126.331C123.851 32 121.917 31.4 120.531 30.2C119.144 28.9733 118.451 26.9867 118.451 24.24V15.36H115.731V9.68H118.451V4.24H125.291V9.68H129.771V15.36H125.291V24.32C125.291 24.9867 125.451 25.4667 125.771 25.76C126.091 26.0533 126.624 26.2 127.371 26.2H129.811ZM132.261 20.8C132.261 18.5067 132.687 16.4933 133.541 14.76C134.421 13.0267 135.607 11.6933 137.101 10.76C138.594 9.82667 140.261 9.36 142.101 9.36C143.674 9.36 145.047 9.68 146.221 10.32C147.421 10.96 148.341 11.8 148.981 12.84V9.68H155.821V32H148.981V28.84C148.314 29.88 147.381 30.72 146.181 31.36C145.007 32 143.634 32.32 142.061 32.32C140.247 32.32 138.594 31.8533 137.101 30.92C135.607 29.96 134.421 28.6133 133.541 26.88C132.687 25.12 132.261 23.0933 132.261 20.8ZM148.981 20.84C148.981 19.1333 148.501 17.7867 147.541 16.8C146.607 15.8133 145.461 15.32 144.101 15.32C142.741 15.32 141.581 15.8133 140.621 16.8C139.687 17.76 139.221 19.0933 139.221 20.8C139.221 22.5067 139.687 23.8667 140.621 24.88C141.581 25.8667 142.741 26.36 144.101 26.36C145.461 26.36 146.607 25.8667 147.541 24.88C148.501 23.8933 148.981 22.5467 148.981 20.84ZM159.409 20.84C159.409 18.52 159.876 16.4933 160.809 14.76C161.769 13.0267 163.089 11.6933 164.769 10.76C166.476 9.82667 168.422 9.36 170.609 9.36C173.409 9.36 175.742 10.0933 177.609 11.56C179.502 13.0267 180.742 15.0933 181.329 17.76H174.049C173.436 16.0533 172.249 15.2 170.489 15.2C169.236 15.2 168.236 15.6933 167.489 16.68C166.742 17.64 166.369 19.0267 166.369 20.84C166.369 22.6533 166.742 24.0533 167.489 25.04C168.236 26 169.236 26.48 170.489 26.48C172.249 26.48 173.436 25.6267 174.049 23.92H181.329C180.742 26.5333 179.502 28.5867 177.609 30.08C175.716 31.5733 173.382 32.32 170.609 32.32C168.422 32.32 166.476 31.8533 164.769 30.92C163.089 29.9867 161.769 28.6533 160.809 26.92C159.876 25.1867 159.409 23.16 159.409 20.84ZM197.428 26.2V32H193.948C191.468 32 189.534 31.4 188.148 30.2C186.761 28.9733 186.068 26.9867 186.068 24.24V15.36H183.348V9.68H186.068V4.24H192.908V9.68H197.388V15.36H192.908V24.32C192.908 24.9867 193.068 25.4667 193.388 25.76C193.708 26.0533 194.241 26.2 194.988 26.2H197.428Z"/>
</mask>
<path d="M33.32 17.92C33.32 15.1467 33.92 12.68 35.12 10.52C36.32 8.33333 37.9867 6.64 40.12 5.44C42.28 4.21333 44.72 3.6 47.44 3.6C50.7733 3.6 53.6267 4.48 56 6.24C58.3733 8 59.96 10.4 60.76 13.44H53.24C52.68 12.2667 51.88 11.3733 50.84 10.76C49.8267 10.1467 48.6667 9.84 47.36 9.84C45.2533 9.84 43.5467 10.5733 42.24 12.04C40.9333 13.5067 40.28 15.4667 40.28 17.92C40.28 20.3733 40.9333 22.3333 42.24 23.8C43.5467 25.2667 45.2533 26 47.36 26C48.6667 26 49.8267 25.6933 50.84 25.08C51.88 24.4667 52.68 23.5733 53.24 22.4H60.76C59.96 25.44 58.3733 27.84 56 29.6C53.6267 31.3333 50.7733 32.2 47.44 32.2C44.72 32.2 42.28 31.6 40.12 30.4C37.9867 29.1733 36.32 27.48 35.12 25.32C33.92 23.16 33.32 20.6933 33.32 17.92ZM75.1088 32.32C72.9221 32.32 70.9488 31.8533 69.1888 30.92C67.4554 29.9867 66.0821 28.6533 65.0688 26.92C64.0821 25.1867 63.5888 23.16 63.5888 20.84C63.5888 18.5467 64.0954 16.5333 65.1087 14.8C66.1221 13.04 67.5088 11.6933 69.2688 10.76C71.0288 9.82667 73.0021 9.36 75.1888 9.36C77.3754 9.36 79.3488 9.82667 81.1088 10.76C82.8688 11.6933 84.2554 13.04 85.2688 14.8C86.2821 16.5333 86.7888 18.5467 86.7888 20.84C86.7888 23.1333 86.2688 25.16 85.2288 26.92C84.2154 28.6533 82.8154 29.9867 81.0288 30.92C79.2688 31.8533 77.2954 32.32 75.1088 32.32ZM75.1088 26.4C76.4154 26.4 77.5221 25.92 78.4288 24.96C79.3621 24 79.8288 22.6267 79.8288 20.84C79.8288 19.0533 79.3754 17.68 78.4688 16.72C77.5888 15.76 76.4954 15.28 75.1888 15.28C73.8554 15.28 72.7488 15.76 71.8688 16.72C70.9888 17.6533 70.5488 19.0267 70.5488 20.84C70.5488 22.6267 70.9754 24 71.8288 24.96C72.7088 25.92 73.8021 26.4 75.1088 26.4ZM104.018 9.44C106.631 9.44 108.711 10.2933 110.258 12C111.831 13.68 112.618 16 112.618 18.96V32H105.818V19.88C105.818 18.3867 105.431 17.2267 104.658 16.4C103.884 15.5733 102.844 15.16 101.538 15.16C100.231 15.16 99.1908 15.5733 98.4175 16.4C97.6442 17.2267 97.2575 18.3867 97.2575 19.88V32H90.4175V9.68H97.2575V12.64C97.9508 11.6533 98.8842 10.88 100.058 10.32C101.231 9.73333 102.551 9.44 104.018 9.44ZM129.811 26.2V32H126.331C123.851 32 121.917 31.4 120.531 30.2C119.144 28.9733 118.451 26.9867 118.451 24.24V15.36H115.731V9.68H118.451V4.24H125.291V9.68H129.771V15.36H125.291V24.32C125.291 24.9867 125.451 25.4667 125.771 25.76C126.091 26.0533 126.624 26.2 127.371 26.2H129.811ZM132.261 20.8C132.261 18.5067 132.687 16.4933 133.541 14.76C134.421 13.0267 135.607 11.6933 137.101 10.76C138.594 9.82667 140.261 9.36 142.101 9.36C143.674 9.36 145.047 9.68 146.221 10.32C147.421 10.96 148.341 11.8 148.981 12.84V9.68H155.821V32H148.981V28.84C148.314 29.88 147.381 30.72 146.181 31.36C145.007 32 143.634 32.32 142.061 32.32C140.247 32.32 138.594 31.8533 137.101 30.92C135.607 29.96 134.421 28.6133 133.541 26.88C132.687 25.12 132.261 23.0933 132.261 20.8ZM148.981 20.84C148.981 19.1333 148.501 17.7867 147.541 16.8C146.607 15.8133 145.461 15.32 144.101 15.32C142.741 15.32 141.581 15.8133 140.621 16.8C139.687 17.76 139.221 19.0933 139.221 20.8C139.221 22.5067 139.687 23.8667 140.621 24.88C141.581 25.8667 142.741 26.36 144.101 26.36C145.461 26.36 146.607 25.8667 147.541 24.88C148.501 23.8933 148.981 22.5467 148.981 20.84ZM159.409 20.84C159.409 18.52 159.876 16.4933 160.809 14.76C161.769 13.0267 163.089 11.6933 164.769 10.76C166.476 9.82667 168.422 9.36 170.609 9.36C173.409 9.36 175.742 10.0933 177.609 11.56C179.502 13.0267 180.742 15.0933 181.329 17.76H174.049C173.436 16.0533 172.249 15.2 170.489 15.2C169.236 15.2 168.236 15.6933 167.489 16.68C166.742 17.64 166.369 19.0267 166.369 20.84C166.369 22.6533 166.742 24.0533 167.489 25.04C168.236 26 169.236 26.48 170.489 26.48C172.249 26.48 173.436 25.6267 174.049 23.92H181.329C180.742 26.5333 179.502 28.5867 177.609 30.08C175.716 31.5733 173.382 32.32 170.609 32.32C168.422 32.32 166.476 31.8533 164.769 30.92C163.089 29.9867 161.769 28.6533 160.809 26.92C159.876 25.1867 159.409 23.16 159.409 20.84ZM197.428 26.2V32H193.948C191.468 32 189.534 31.4 188.148 30.2C186.761 28.9733 186.068 26.9867 186.068 24.24V15.36H183.348V9.68H186.068V4.24H192.908V9.68H197.388V15.36H192.908V24.32C192.908 24.9867 193.068 25.4667 193.388 25.76C193.708 26.0533 194.241 26.2 194.988 26.2H197.428Z" fill="white"/>
<path d="M35.12 10.52L37.7425 11.9769L37.7463 11.9701L37.75 11.9633L35.12 10.52ZM40.12 5.44L41.5908 8.05475L41.6015 8.04868L40.12 5.44ZM56 6.24L57.787 3.83029L57.787 3.83029L56 6.24ZM60.76 13.44V16.44H64.6516L63.6612 12.6765L60.76 13.44ZM53.24 13.44L50.5326 14.7322L51.3476 16.44H53.24V13.44ZM50.84 10.76L49.2866 13.3265L49.3013 13.3354L49.316 13.3441L50.84 10.76ZM42.24 12.04L44.48 14.0356H44.48L42.24 12.04ZM42.24 23.8L40 25.7956L42.24 23.8ZM50.84 25.08L49.316 22.4959L49.3013 22.5046L49.2866 22.5135L50.84 25.08ZM53.24 22.4V19.4H51.3476L50.5326 21.1078L53.24 22.4ZM60.76 22.4L63.6612 23.1635L64.6516 19.4H60.76V22.4ZM56 29.6L57.7694 32.0227L57.7782 32.0162L57.787 32.0097L56 29.6ZM40.12 30.4L38.6246 33.0007L38.6437 33.0117L38.6631 33.0225L40.12 30.4ZM35.12 25.32L37.7425 23.8631L35.12 25.32ZM36.32 17.92C36.32 15.593 36.8192 13.6388 37.7425 11.9769L32.4975 9.06307C31.0208 11.7212 30.32 14.7003 30.32 17.92H36.32ZM37.75 11.9633C38.6859 10.2578 39.9554 8.97465 41.5908 8.05473L38.6492 2.82527C36.018 4.30535 33.9541 6.40888 32.49 9.07671L37.75 11.9633ZM41.6015 8.04868C43.2677 7.10241 45.1887 6.6 47.44 6.6V0.599998C44.2513 0.599998 41.2923 1.32425 38.6385 2.83131L41.6015 8.04868ZM47.44 6.6C50.2161 6.6 52.4219 7.32145 54.213 8.64971L57.787 3.83029C54.8315 1.63855 51.3306 0.599998 47.44 0.599998V6.6ZM54.213 8.64971C56.0022 9.97652 57.2204 11.7777 57.8588 14.2035L63.6612 12.6765C62.6996 9.02235 60.7445 6.02348 57.787 3.83029L54.213 8.64971ZM60.76 10.44H53.24V16.44H60.76V10.44ZM55.9474 12.1478C55.151 10.4791 53.9581 9.11606 52.364 8.1759L49.316 13.3441C49.8019 13.6306 50.209 14.0543 50.5326 14.7322L55.9474 12.1478ZM52.3934 8.1935C50.8641 7.26788 49.1561 6.84 47.36 6.84V12.84C48.1772 12.84 48.7892 13.0255 49.2866 13.3265L52.3934 8.1935ZM47.36 6.84C44.4675 6.84 41.9208 7.88835 40 10.0444L44.48 14.0356C45.1725 13.2583 46.0391 12.84 47.36 12.84V6.84ZM40 10.0444C38.0905 12.1877 37.28 14.921 37.28 17.92H43.28C43.28 16.0123 43.7761 14.8256 44.48 14.0356L40 10.0444ZM37.28 17.92C37.28 20.919 38.0905 23.6523 40 25.7956L44.48 21.8044C43.7761 21.0144 43.28 19.8277 43.28 17.92H37.28ZM40 25.7956C41.9208 27.9516 44.4675 29 47.36 29V23C46.0391 23 45.1725 22.5817 44.48 21.8044L40 25.7956ZM47.36 29C49.1561 29 50.8641 28.5721 52.3934 27.6465L49.2866 22.5135C48.7892 22.8145 48.1772 23 47.36 23V29ZM52.364 27.6641C53.9581 26.7239 55.151 25.3609 55.9474 23.6922L50.5326 21.1078C50.209 21.7857 49.8019 22.2094 49.316 22.4959L52.364 27.6641ZM53.24 25.4H60.76V19.4H53.24V25.4ZM57.8588 21.6365C57.2204 24.0623 56.0022 25.8635 54.213 27.1903L57.787 32.0097C60.7445 29.8165 62.6996 26.8177 63.6612 23.1635L57.8588 21.6365ZM54.2306 27.1773C52.4385 28.4862 50.2263 29.2 47.44 29.2V35.2C51.3204 35.2 54.8149 34.1805 57.7694 32.0227L54.2306 27.1773ZM47.44 29.2C45.1772 29.2 43.2474 28.7056 41.5769 27.7775L38.6631 33.0225C41.3126 34.4944 44.2628 35.2 47.44 35.2V29.2ZM41.6154 27.7993C39.9568 26.8456 38.6788 25.5485 37.7425 23.8631L32.4975 26.7769C33.9612 29.4115 36.0166 31.5011 38.6246 33.0007L41.6154 27.7993ZM37.7425 23.8631C36.8192 22.2012 36.32 20.247 36.32 17.92H30.32C30.32 21.1397 31.0208 24.1188 32.4975 26.7769L37.7425 23.8631ZM69.1888 30.92L67.7665 33.5614L67.7748 33.5659L67.7832 33.5704L69.1888 30.92ZM65.0687 26.92L62.4616 28.4041L62.4701 28.4191L62.4789 28.4341L65.0687 26.92ZM65.1087 14.8L67.6986 16.3141L67.7037 16.3055L67.7086 16.2969L65.1087 14.8ZM69.2687 10.76L70.6743 13.4104V13.4104L69.2687 10.76ZM81.1087 10.76L79.7032 13.4104L81.1087 10.76ZM85.2688 14.8L82.6689 16.2969L82.6738 16.3055L82.6789 16.3141L85.2688 14.8ZM85.2288 26.92L82.6459 25.3938L82.6389 25.4059L85.2288 26.92ZM81.0288 30.92L79.6397 28.261L79.6315 28.2653L79.6232 28.2696L81.0288 30.92ZM78.4287 24.96L76.2778 22.8688L76.2626 22.8843L76.2477 22.9001L78.4287 24.96ZM78.4688 16.72L76.2573 18.7472L76.2724 18.7636L76.2877 18.7799L78.4688 16.72ZM71.8688 16.72L74.0515 18.778L74.066 18.7627L74.0802 18.7472L71.8688 16.72ZM71.8288 24.96L69.5865 26.9531L69.6018 26.9702L69.6173 26.9872L71.8288 24.96ZM75.1087 29.32C73.3633 29.32 71.8802 28.9515 70.5943 28.2696L67.7832 33.5704C70.0173 34.7551 72.4809 35.32 75.1087 35.32V29.32ZM70.611 28.2786C69.3732 27.612 68.3996 26.6733 67.6586 25.4059L62.4789 28.4341C63.7646 30.6334 65.5377 32.3613 67.7665 33.5614L70.611 28.2786ZM67.6759 25.4359C66.986 24.2239 66.5887 22.7253 66.5887 20.84H60.5888C60.5888 23.5947 61.1781 26.1494 62.4616 28.4041L67.6759 25.4359ZM66.5887 20.84C66.5887 19.0018 66.9902 17.5258 67.6986 16.3141L62.5189 13.2859C61.2006 15.5408 60.5888 18.0915 60.5888 20.84H66.5887ZM67.7086 16.2969C68.4461 15.0161 69.4231 14.0739 70.6743 13.4104L67.8632 8.10961C65.5944 9.31279 63.7981 11.0639 62.5089 13.3031L67.7086 16.2969ZM70.6743 13.4104C71.9602 12.7285 73.4433 12.36 75.1888 12.36V6.36C72.5609 6.36 70.0973 6.92486 67.8632 8.10961L70.6743 13.4104ZM75.1888 12.36C76.9342 12.36 78.4173 12.7285 79.7032 13.4104L82.5143 8.10961C80.2802 6.92486 77.8166 6.36 75.1888 6.36V12.36ZM79.7032 13.4104C80.9544 14.0739 81.9314 15.0161 82.6689 16.2969L87.8686 13.3031C86.5794 11.0639 84.7831 9.31279 82.5143 8.10961L79.7032 13.4104ZM82.6789 16.3141C83.3873 17.5258 83.7887 19.0018 83.7887 20.84H89.7887C89.7887 18.0915 89.1769 15.5408 87.8586 13.2859L82.6789 16.3141ZM83.7887 20.84C83.7887 22.6634 83.3807 24.1505 82.646 25.3938L87.8115 28.4462C89.1568 26.1695 89.7887 23.6033 89.7887 20.84H83.7887ZM82.6389 25.4059C81.9114 26.6502 80.9285 27.5877 79.6397 28.261L82.4178 33.579C84.7023 32.3856 86.5194 30.6564 87.8186 28.4341L82.6389 25.4059ZM79.6232 28.2696C78.3373 28.9515 76.8542 29.32 75.1087 29.32V35.32C77.7366 35.32 80.2002 34.7551 82.4343 33.5704L79.6232 28.2696ZM75.1087 29.4C77.2506 29.4 79.1432 28.5727 80.6098 27.0199L76.2477 22.9001C75.901 23.2673 75.5802 23.4 75.1087 23.4V29.4ZM80.5797 27.0512C82.2197 25.3644 82.8288 23.1391 82.8288 20.84H76.8288C76.8288 22.1142 76.5044 22.6356 76.2778 22.8688L80.5797 27.0512ZM82.8288 20.84C82.8288 18.5629 82.2452 16.3494 80.6498 14.6601L76.2877 18.7799C76.5056 19.0106 76.8288 19.5438 76.8288 20.84H82.8288ZM80.6802 14.6928C79.2298 13.1106 77.3331 12.28 75.1888 12.28V18.28C75.6577 18.28 75.9477 18.4094 76.2573 18.7472L80.6802 14.6928ZM75.1888 12.28C73.0373 12.28 71.1207 13.0964 69.6573 14.6928L74.0802 18.7472C74.3768 18.4236 74.6736 18.28 75.1888 18.28V12.28ZM69.686 14.662C68.0978 16.3464 67.5488 18.5787 67.5488 20.84H73.5488C73.5488 19.4746 73.8797 18.9603 74.0515 18.778L69.686 14.662ZM67.5488 20.84C67.5488 23.0742 68.083 25.2617 69.5865 26.9531L74.071 22.9669C73.8678 22.7383 73.5488 22.1792 73.5488 20.84H67.5488ZM69.6173 26.9872C71.0677 28.5694 72.9644 29.4 75.1087 29.4V23.4C74.6398 23.4 74.3498 23.2706 74.0402 22.9328L69.6173 26.9872ZM110.257 12L108.035 14.0146L108.051 14.0327L108.068 14.0507L110.257 12ZM112.618 32V35H115.618V32H112.618ZM105.818 32H102.818V35H105.818V32ZM104.658 16.4L102.467 18.4495L102.467 18.4495L104.658 16.4ZM98.4175 16.4L100.608 18.4495V18.4495L98.4175 16.4ZM97.2575 32V35H100.257V32H97.2575ZM90.4175 32H87.4175V35H90.4175V32ZM90.4175 9.68V6.68H87.4175V9.68H90.4175ZM97.2575 9.68H100.257V6.68H97.2575V9.68ZM97.2575 12.64H94.2575V22.1271L99.7121 14.3648L97.2575 12.64ZM100.058 10.32L101.35 13.0274L101.375 13.0156L101.399 13.0033L100.058 10.32ZM104.018 12.44C105.91 12.44 107.136 13.0232 108.035 14.0146L112.48 9.98544C110.286 7.5635 107.352 6.44 104.018 6.44V12.44ZM108.068 14.0507C108.984 15.0294 109.618 16.536 109.618 18.96H115.618C115.618 15.464 114.677 12.3306 112.447 9.94933L108.068 14.0507ZM109.618 18.96V32H115.618V18.96H109.618ZM112.618 29H105.818V35H112.618V29ZM108.818 32V19.88H102.818V32H108.818ZM108.818 19.88C108.818 17.875 108.29 15.8917 106.848 14.3505L102.467 18.4495C102.572 18.5617 102.818 18.8983 102.818 19.88H108.818ZM106.848 14.3505C105.419 12.8221 103.534 12.16 101.537 12.16V18.16C102.154 18.16 102.35 18.3245 102.467 18.4495L106.848 14.3505ZM101.537 12.16C99.5408 12.16 97.6565 12.8221 96.2267 14.3505L100.608 18.4495C100.725 18.3245 100.921 18.16 101.537 18.16V12.16ZM96.2267 14.3505C94.785 15.8917 94.2575 17.875 94.2575 19.88H100.257C100.257 18.8983 100.503 18.5617 100.608 18.4495L96.2267 14.3505ZM94.2575 19.88V32H100.257V19.88H94.2575ZM97.2575 29H90.4175V35H97.2575V29ZM93.4175 32V9.68H87.4175V32H93.4175ZM90.4175 12.68H97.2575V6.68H90.4175V12.68ZM94.2575 9.68V12.64H100.257V9.68H94.2575ZM99.7121 14.3648C100.086 13.8329 100.604 13.3832 101.35 13.0274L98.7653 7.61256C97.164 8.37683 95.8158 9.47375 94.8029 10.9152L99.7121 14.3648ZM101.399 13.0033C102.109 12.6484 102.961 12.44 104.018 12.44V6.44C102.141 6.44 100.353 6.81826 98.7159 7.63672L101.399 13.0033ZM129.811 26.2H132.811V23.2H129.811V26.2ZM129.811 32V35H132.811V32H129.811ZM120.531 30.2L118.543 32.447L118.555 32.4578L118.567 32.4685L120.531 30.2ZM118.451 15.36H121.451V12.36H118.451V15.36ZM115.731 15.36H112.731V18.36H115.731V15.36ZM115.731 9.68V6.68H112.731V9.68H115.731ZM118.451 9.68V12.68H121.451V9.68H118.451ZM118.451 4.24V1.24H115.451V4.24H118.451ZM125.291 4.24H128.291V1.24H125.291V4.24ZM125.291 9.68H122.291V12.68H125.291V9.68ZM129.771 9.68H132.771V6.68H129.771V9.68ZM129.771 15.36V18.36H132.771V15.36H129.771ZM125.291 15.36V12.36H122.291V15.36H125.291ZM125.771 25.76L123.743 27.9715V27.9715L125.771 25.76ZM126.811 26.2V32H132.811V26.2H126.811ZM129.811 29H126.331V35H129.811V29ZM126.331 29C124.316 29 123.169 28.5157 122.494 27.9315L118.567 32.4685C120.666 34.2843 123.385 35 126.331 35V29ZM122.518 27.953C122.035 27.5251 121.451 26.5479 121.451 24.24H115.451C115.451 27.4255 116.253 30.4216 118.543 32.447L122.518 27.953ZM121.451 24.24V15.36H115.451V24.24H121.451ZM118.451 12.36H115.731V18.36H118.451V12.36ZM118.731 15.36V9.68H112.731V15.36H118.731ZM115.731 12.68H118.451V6.68H115.731V12.68ZM121.451 9.68V4.24H115.451V9.68H121.451ZM118.451 7.24H125.291V1.24H118.451V7.24ZM122.291 4.24V9.68H128.291V4.24H122.291ZM125.291 12.68H129.771V6.68H125.291V12.68ZM126.771 9.68V15.36H132.771V9.68H126.771ZM129.771 12.36H125.291V18.36H129.771V12.36ZM122.291 15.36V24.32H128.291V15.36H122.291ZM122.291 24.32C122.291 25.3806 122.537 26.8654 123.743 27.9715L127.798 23.5485C128.072 23.7996 128.202 24.0683 128.257 24.2313C128.305 24.3768 128.291 24.4272 128.291 24.32H122.291ZM123.743 27.9715C124.898 29.0298 126.371 29.2 127.371 29.2V23.2C127.179 23.2 127.141 23.1795 127.206 23.1974C127.276 23.2166 127.524 23.2977 127.798 23.5485L123.743 27.9715ZM127.371 29.2H129.811V23.2H127.371V29.2ZM133.541 14.76L130.866 13.4019L130.857 13.4184L130.849 13.4349L133.541 14.76ZM137.101 10.76L138.691 13.304L137.101 10.76ZM146.221 10.32L144.784 12.9537L144.796 12.9604L144.809 12.9671L146.221 10.32ZM148.981 12.84L146.426 14.4123L151.981 23.4391V12.84H148.981ZM148.981 9.68V6.68H145.981V9.68H148.981ZM155.821 9.68H158.821V6.68H155.821V9.68ZM155.821 32V35H158.821V32H155.821ZM148.981 32H145.981V35H148.981V32ZM148.981 28.84H151.981V18.601L146.455 27.221L148.981 28.84ZM146.181 31.36L144.769 28.7129L144.756 28.7196L144.744 28.7263L146.181 31.36ZM137.101 30.92L135.478 33.4435L135.494 33.4539L135.511 33.464L137.101 30.92ZM133.541 26.88L130.841 28.1888L130.853 28.2136L130.866 28.2381L133.541 26.88ZM147.541 16.8L145.361 18.8616L145.376 18.8769L145.39 18.8921L147.541 16.8ZM140.621 16.8L138.47 14.7079L138.47 14.7088L140.621 16.8ZM140.621 24.88L138.414 26.9124L138.442 26.9426L138.47 26.9721L140.621 24.88ZM147.541 24.88L145.39 22.7879L145.376 22.8031L145.361 22.8184L147.541 24.88ZM135.261 20.8C135.261 18.8809 135.616 17.3359 136.232 16.0851L130.849 13.4349C129.758 15.6507 129.261 18.1324 129.261 20.8H135.261ZM136.216 16.1181C136.875 14.8193 137.707 13.9186 138.691 13.304L135.511 8.216C133.507 9.46805 131.966 11.234 130.866 13.4019L136.216 16.1181ZM138.691 13.304C139.685 12.6824 140.796 12.36 142.101 12.36V6.36C139.725 6.36 137.503 6.97095 135.511 8.216L138.691 13.304ZM142.101 12.36C143.261 12.36 144.124 12.5934 144.784 12.9537L147.657 7.68631C145.971 6.76661 144.087 6.36 142.101 6.36V12.36ZM144.809 12.9671C145.594 13.3858 146.095 13.8757 146.426 14.4123L151.536 11.2677C150.586 9.72432 149.247 8.53425 147.632 7.67294L144.809 12.9671ZM151.981 12.84V9.68H145.981V12.84H151.981ZM148.981 12.68H155.821V6.68H148.981V12.68ZM152.821 9.68V32H158.821V9.68H152.821ZM155.821 29H148.981V35H155.821V29ZM151.981 32V28.84H145.981V32H151.981ZM146.455 27.221C146.093 27.786 145.563 28.2896 144.769 28.7129L147.592 34.0071C149.199 33.1504 150.535 31.974 151.506 30.459L146.455 27.221ZM144.744 28.7263C144.084 29.0866 143.221 29.32 142.061 29.32V35.32C144.047 35.32 145.931 34.9134 147.617 33.9937L144.744 28.7263ZM142.061 29.32C140.792 29.32 139.692 29.0021 138.691 28.376L135.511 33.464C137.495 34.7045 139.703 35.32 142.061 35.32V29.32ZM138.723 28.3965C137.72 27.7515 136.878 26.8267 136.216 25.5219L130.866 28.2381C131.963 30.4 133.495 32.1685 135.478 33.4435L138.723 28.3965ZM136.24 25.5712C135.616 24.2838 135.261 22.7177 135.261 20.8H129.261C129.261 23.4689 129.759 25.9562 130.841 28.1888L136.24 25.5712ZM151.981 20.84C151.981 18.5495 151.32 16.3819 149.691 14.7079L145.39 18.8921C145.682 19.1914 145.981 19.7172 145.981 20.84H151.981ZM149.72 14.7384C148.219 13.1518 146.284 12.32 144.101 12.32V18.32C144.637 18.32 144.995 18.4749 145.361 18.8616L149.72 14.7384ZM144.101 12.32C141.92 12.32 139.987 13.1488 138.47 14.7079L142.771 18.8921C143.174 18.4779 143.562 18.32 144.101 18.32V12.32ZM138.47 14.7088C136.853 16.3712 136.221 18.5364 136.221 20.8H142.221C142.221 19.6502 142.521 19.1488 142.772 18.8912L138.47 14.7088ZM136.221 20.8C136.221 23.0715 136.856 25.2208 138.414 26.9124L142.827 22.8476C142.519 22.5125 142.221 21.9418 142.221 20.8H136.221ZM138.47 26.9721C139.987 28.5312 141.92 29.36 144.101 29.36V23.36C143.562 23.36 143.174 23.2021 142.771 22.7879L138.47 26.9721ZM144.101 29.36C146.284 29.36 148.219 28.5282 149.72 26.9416L145.361 22.8184C144.995 23.2051 144.637 23.36 144.101 23.36V29.36ZM149.691 26.9721C151.32 25.2981 151.981 23.1305 151.981 20.84H145.981C145.981 21.9628 145.682 22.4886 145.39 22.7879L149.691 26.9721ZM160.809 14.76L158.185 13.3065L158.176 13.322L158.168 13.3377L160.809 14.76ZM164.769 10.76L163.33 8.12789L163.321 8.13268L163.312 8.13753L164.769 10.76ZM177.609 11.56L175.756 13.919L175.764 13.9253L175.772 13.9316L177.609 11.56ZM181.329 17.76V20.76H185.061L184.259 17.1154L181.329 17.76ZM174.049 17.76L171.226 18.7746L171.939 20.76H174.049V17.76ZM167.489 16.68L169.857 18.5218L169.869 18.5062L169.881 18.4903L167.489 16.68ZM167.489 25.04L165.097 26.8503L165.109 26.8662L165.121 26.8818L167.489 25.04ZM174.049 23.92V20.92H171.939L171.226 22.9054L174.049 23.92ZM181.329 23.92L184.256 24.5771L185.077 20.92H181.329V23.92ZM177.609 30.08L175.751 27.7245L177.609 30.08ZM164.769 30.92L163.312 33.5425L163.321 33.5473L163.33 33.5521L164.769 30.92ZM160.809 26.92L158.168 28.3423L158.176 28.358L158.185 28.3735L160.809 26.92ZM162.409 20.84C162.409 18.9278 162.791 17.4066 163.45 16.1823L158.168 13.3377C156.96 15.5801 156.409 18.1122 156.409 20.84H162.409ZM163.433 16.2135C164.13 14.9554 165.053 14.0343 166.226 13.3825L163.312 8.13753C161.125 9.35234 159.408 11.098 158.185 13.3065L163.433 16.2135ZM166.208 13.3921C167.421 12.7289 168.862 12.36 170.609 12.36V6.36C167.983 6.36 165.53 6.92445 163.33 8.12789L166.208 13.3921ZM170.609 12.36C172.862 12.36 174.508 12.939 175.756 13.919L179.463 9.20104C176.976 7.2477 173.956 6.36 170.609 6.36V12.36ZM175.772 13.9316C177.033 14.9085 177.941 16.322 178.399 18.4046L184.259 17.1154C183.544 13.8646 181.972 11.1448 179.446 9.18835L175.772 13.9316ZM181.329 14.76H174.049V20.76H181.329V14.76ZM176.872 16.7454C176.41 15.4594 175.644 14.2626 174.451 13.4044C173.25 12.5409 171.866 12.2 170.489 12.2V18.2C170.687 18.2 170.806 18.224 170.867 18.2416C170.923 18.2578 170.942 18.2719 170.948 18.2756C170.953 18.2798 170.982 18.3004 171.027 18.3655C171.076 18.4346 171.149 18.5613 171.226 18.7746L176.872 16.7454ZM170.489 12.2C168.31 12.2 166.419 13.1223 165.097 14.8697L169.881 18.4903C170.004 18.3279 170.089 18.2788 170.126 18.2604C170.165 18.2414 170.265 18.2 170.489 18.2V12.2ZM165.121 14.8382C163.807 16.5278 163.369 18.673 163.369 20.84H169.369C169.369 19.3804 169.678 18.7522 169.857 18.5218L165.121 14.8382ZM163.369 20.84C163.369 23.0148 163.81 25.1498 165.097 26.8503L169.881 23.2297C169.675 22.9569 169.369 22.2919 169.369 20.84H163.369ZM165.121 26.8818C166.456 28.5982 168.343 29.48 170.489 29.48V23.48C170.128 23.48 170.015 23.4018 169.857 23.1982L165.121 26.8818ZM170.489 29.48C171.866 29.48 173.25 29.1391 174.451 28.2756C175.644 27.4174 176.41 26.2206 176.872 24.9346L171.226 22.9054C171.149 23.1187 171.076 23.2454 171.027 23.3145C170.982 23.3796 170.953 23.4002 170.948 23.4044C170.942 23.4081 170.923 23.4222 170.867 23.4384C170.806 23.456 170.687 23.48 170.489 23.48V29.48ZM174.049 26.92H181.329V20.92H174.049V26.92ZM178.402 23.2629C177.948 25.2832 177.043 26.7054 175.751 27.7245L179.467 32.4355C181.962 30.4679 183.536 27.7834 184.256 24.5771L178.402 23.2629ZM175.751 27.7245C174.465 28.7391 172.814 29.32 170.609 29.32V35.32C173.95 35.32 176.967 34.4076 179.467 32.4355L175.751 27.7245ZM170.609 29.32C168.862 29.32 167.421 28.9511 166.208 28.2879L163.33 33.5521C165.53 34.7555 167.983 35.32 170.609 35.32V29.32ZM166.226 28.2975C165.053 27.6457 164.13 26.7246 163.433 25.4665L158.185 28.3735C159.408 30.582 161.125 32.3277 163.312 33.5425L166.226 28.2975ZM163.45 25.4977C162.791 24.2734 162.409 22.7522 162.409 20.84H156.409C156.409 23.5678 156.96 26.0999 158.168 28.3423L163.45 25.4977ZM197.428 26.2H200.428V23.2H197.428V26.2ZM197.428 32V35H200.428V32H197.428ZM188.148 30.2L186.16 32.447L186.172 32.4578L186.185 32.4685L188.148 30.2ZM186.068 15.36H189.068V12.36H186.068V15.36ZM183.348 15.36H180.348V18.36H183.348V15.36ZM183.348 9.68V6.68H180.348V9.68H183.348ZM186.068 9.68V12.68H189.068V9.68H186.068ZM186.068 4.24V1.24H183.068V4.24H186.068ZM192.908 4.24H195.908V1.24H192.908V4.24ZM192.908 9.68H189.908V12.68H192.908V9.68ZM197.388 9.68H200.388V6.68H197.388V9.68ZM197.388 15.36V18.36H200.388V15.36H197.388ZM192.908 15.36V12.36H189.908V15.36H192.908ZM193.388 25.76L191.361 27.9715V27.9715L193.388 25.76ZM194.428 26.2V32H200.428V26.2H194.428ZM197.428 29H193.948V35H197.428V29ZM193.948 29C191.933 29 190.786 28.5157 190.111 27.9315L186.185 32.4685C188.283 34.2843 191.002 35 193.948 35V29ZM190.136 27.953C189.652 27.5251 189.068 26.5479 189.068 24.24H183.068C183.068 27.4255 183.87 30.4216 186.16 32.447L190.136 27.953ZM189.068 24.24V15.36H183.068V24.24H189.068ZM186.068 12.36H183.348V18.36H186.068V12.36ZM186.348 15.36V9.68H180.348V15.36H186.348ZM183.348 12.68H186.068V6.68H183.348V12.68ZM189.068 9.68V4.24H183.068V9.68H189.068ZM186.068 7.24H192.908V1.24H186.068V7.24ZM189.908 4.24V9.68H195.908V4.24H189.908ZM192.908 12.68H197.388V6.68H192.908V12.68ZM194.388 9.68V15.36H200.388V9.68H194.388ZM197.388 12.36H192.908V18.36H197.388V12.36ZM189.908 15.36V24.32H195.908V15.36H189.908ZM189.908 24.32C189.908 25.3806 190.154 26.8654 191.361 27.9715L195.415 23.5485C195.689 23.7996 195.82 24.0683 195.874 24.2313C195.922 24.3768 195.908 24.4272 195.908 24.32H189.908ZM191.361 27.9715C192.515 29.0298 193.988 29.2 194.988 29.2V23.2C194.796 23.2 194.758 23.1795 194.823 23.1974C194.893 23.2166 195.141 23.2977 195.415 23.5485L191.361 27.9715ZM194.988 29.2H197.428V23.2H194.988V29.2Z" fill="#0069FF" mask="url(#path-2-outside-1_4078_504)"/>
</svg>
