<svg width="230" height="50" viewBox="0 0 230 50" fill="none" xmlns="http://www.w3.org/2000/svg">
<rect y="34" width="230" height="8" fill="#0069FF"/>
<mask id="path-2-outside-1_4078_458" maskUnits="userSpaceOnUse" x="31" y="0" width="170" height="50" fill="black">
<rect fill="white" x="31" width="170" height="50"/>
<path d="M55.88 16.96C55.88 18.5867 55.5067 20.08 54.76 21.44C54.0133 22.7733 52.8667 23.8533 51.32 24.68C49.7733 25.5067 47.8533 25.92 45.56 25.92H41.32V36H34.48V7.92H45.56C47.8 7.92 49.6933 8.30667 51.24 9.08C52.7867 9.85333 53.9467 10.92 54.72 12.28C55.4933 13.64 55.88 15.2 55.88 16.96ZM45.04 20.48C46.3467 20.48 47.32 20.1733 47.96 19.56C48.6 18.9467 48.92 18.08 48.92 16.96C48.92 15.84 48.6 14.9733 47.96 14.36C47.32 13.7467 46.3467 13.44 45.04 13.44H41.32V20.48H45.04ZM66.2809 17.4C67.0809 16.1733 68.0809 15.2133 69.2809 14.52C70.4809 13.8 71.8143 13.44 73.2809 13.44V20.68H71.4009C69.6943 20.68 68.4143 21.0533 67.5609 21.8C66.7076 22.52 66.2809 23.8 66.2809 25.64V36H59.4409V13.68H66.2809V17.4ZM86.7103 36.32C84.5236 36.32 82.5503 35.8533 80.7903 34.92C79.057 33.9867 77.6836 32.6533 76.6703 30.92C75.6836 29.1867 75.1903 27.16 75.1903 24.84C75.1903 22.5467 75.697 20.5333 76.7103 18.8C77.7236 17.04 79.1103 15.6933 80.8703 14.76C82.6303 13.8267 84.6036 13.36 86.7903 13.36C88.977 13.36 90.9503 13.8267 92.7103 14.76C94.4703 15.6933 95.857 17.04 96.8703 18.8C97.8836 20.5333 98.3903 22.5467 98.3903 24.84C98.3903 27.1333 97.8703 29.16 96.8303 30.92C95.817 32.6533 94.417 33.9867 92.6303 34.92C90.8703 35.8533 88.897 36.32 86.7103 36.32ZM86.7103 30.4C88.017 30.4 89.1236 29.92 90.0303 28.96C90.9636 28 91.4303 26.6267 91.4303 24.84C91.4303 23.0533 90.977 21.68 90.0703 20.72C89.1903 19.76 88.097 19.28 86.7903 19.28C85.457 19.28 84.3503 19.76 83.4703 20.72C82.5903 21.6533 82.1503 23.0267 82.1503 24.84C82.1503 26.6267 82.577 28 83.4303 28.96C84.3103 29.92 85.4036 30.4 86.7103 30.4ZM105.419 11.36C104.219 11.36 103.232 11.0133 102.459 10.32C101.712 9.6 101.339 8.72 101.339 7.68C101.339 6.61333 101.712 5.73333 102.459 5.04C103.232 4.32 104.219 3.96 105.419 3.96C106.592 3.96 107.552 4.32 108.299 5.04C109.072 5.73333 109.459 6.61333 109.459 7.68C109.459 8.72 109.072 9.6 108.299 10.32C107.552 11.0133 106.592 11.36 105.419 11.36ZM108.859 38.88C108.859 41.6267 108.166 43.6 106.779 44.8C105.392 46.0267 103.459 46.64 100.979 46.64H98.2991V40.84H99.9391C100.686 40.84 101.219 40.6933 101.539 40.4C101.859 40.1067 102.019 39.6267 102.019 38.96V13.68H108.859V38.88ZM134.817 24.48C134.817 25.12 134.777 25.7867 134.697 26.48H119.217C119.324 27.8667 119.764 28.9333 120.537 29.68C121.337 30.4 122.31 30.76 123.457 30.76C125.164 30.76 126.35 30.04 127.017 28.6H134.297C133.924 30.0667 133.244 31.3867 132.257 32.56C131.297 33.7333 130.084 34.6533 128.617 35.32C127.15 35.9867 125.51 36.32 123.697 36.32C121.51 36.32 119.564 35.8533 117.857 34.92C116.15 33.9867 114.817 32.6533 113.857 30.92C112.897 29.1867 112.417 27.16 112.417 24.84C112.417 22.52 112.884 20.4933 113.817 18.76C114.777 17.0267 116.11 15.6933 117.817 14.76C119.524 13.8267 121.484 13.36 123.697 13.36C125.857 13.36 127.777 13.8133 129.457 14.72C131.137 15.6267 132.444 16.92 133.377 18.6C134.337 20.28 134.817 22.24 134.817 24.48ZM127.817 22.68C127.817 21.5067 127.417 20.5733 126.617 19.88C125.817 19.1867 124.817 18.84 123.617 18.84C122.47 18.84 121.497 19.1733 120.697 19.84C119.924 20.5067 119.444 21.4533 119.257 22.68H127.817ZM137.065 24.84C137.065 22.52 137.532 20.4933 138.465 18.76C139.425 17.0267 140.745 15.6933 142.425 14.76C144.132 13.8267 146.079 13.36 148.265 13.36C151.065 13.36 153.399 14.0933 155.265 15.56C157.159 17.0267 158.399 19.0933 158.985 21.76H151.705C151.092 20.0533 149.905 19.2 148.145 19.2C146.892 19.2 145.892 19.6933 145.145 20.68C144.399 21.64 144.025 23.0267 144.025 24.84C144.025 26.6533 144.399 28.0533 145.145 29.04C145.892 30 146.892 30.48 148.145 30.48C149.905 30.48 151.092 29.6267 151.705 27.92H158.985C158.399 30.5333 157.159 32.5867 155.265 34.08C153.372 35.5733 151.039 36.32 148.265 36.32C146.079 36.32 144.132 35.8533 142.425 34.92C140.745 33.9867 139.425 32.6533 138.465 30.92C137.532 29.1867 137.065 27.16 137.065 24.84ZM175.084 30.2V36H171.604C169.124 36 167.191 35.4 165.804 34.2C164.417 32.9733 163.724 30.9867 163.724 28.24V19.36H161.004V13.68H163.724V8.24H170.564V13.68H175.044V19.36H170.564V28.32C170.564 28.9867 170.724 29.4667 171.044 29.76C171.364 30.0533 171.897 30.2 172.644 30.2H175.084ZM187.974 36.32C186.027 36.32 184.294 35.9867 182.774 35.32C181.254 34.6533 180.054 33.7467 179.174 32.6C178.294 31.4267 177.801 30.12 177.694 28.68H184.454C184.534 29.4533 184.894 30.08 185.534 30.56C186.174 31.04 186.961 31.28 187.894 31.28C188.747 31.28 189.401 31.12 189.854 30.8C190.334 30.4533 190.574 30.0133 190.574 29.48C190.574 28.84 190.241 28.3733 189.574 28.08C188.907 27.76 187.827 27.4133 186.334 27.04C184.734 26.6667 183.401 26.28 182.334 25.88C181.267 25.4533 180.347 24.8 179.574 23.92C178.801 23.0133 178.414 21.8 178.414 20.28C178.414 19 178.761 17.84 179.454 16.8C180.174 15.7333 181.214 14.8933 182.574 14.28C183.961 13.6667 185.601 13.36 187.494 13.36C190.294 13.36 192.494 14.0533 194.094 15.44C195.721 16.8267 196.654 18.6667 196.894 20.96H190.574C190.467 20.1867 190.121 19.5733 189.534 19.12C188.974 18.6667 188.227 18.44 187.294 18.44C186.494 18.44 185.881 18.6 185.454 18.92C185.027 19.2133 184.814 19.6267 184.814 20.16C184.814 20.8 185.147 21.28 185.814 21.6C186.507 21.92 187.574 22.24 189.014 22.56C190.667 22.9867 192.014 23.4133 193.054 23.84C194.094 24.24 195.001 24.9067 195.774 25.84C196.574 26.7467 196.987 27.9733 197.014 29.52C197.014 30.8267 196.641 32 195.894 33.04C195.174 34.0533 194.121 34.8533 192.734 35.44C191.374 36.0267 189.787 36.32 187.974 36.32Z"/>
</mask>
<path d="M55.88 16.96C55.88 18.5867 55.5067 20.08 54.76 21.44C54.0133 22.7733 52.8667 23.8533 51.32 24.68C49.7733 25.5067 47.8533 25.92 45.56 25.92H41.32V36H34.48V7.92H45.56C47.8 7.92 49.6933 8.30667 51.24 9.08C52.7867 9.85333 53.9467 10.92 54.72 12.28C55.4933 13.64 55.88 15.2 55.88 16.96ZM45.04 20.48C46.3467 20.48 47.32 20.1733 47.96 19.56C48.6 18.9467 48.92 18.08 48.92 16.96C48.92 15.84 48.6 14.9733 47.96 14.36C47.32 13.7467 46.3467 13.44 45.04 13.44H41.32V20.48H45.04ZM66.2809 17.4C67.0809 16.1733 68.0809 15.2133 69.2809 14.52C70.4809 13.8 71.8143 13.44 73.2809 13.44V20.68H71.4009C69.6943 20.68 68.4143 21.0533 67.5609 21.8C66.7076 22.52 66.2809 23.8 66.2809 25.64V36H59.4409V13.68H66.2809V17.4ZM86.7103 36.32C84.5236 36.32 82.5503 35.8533 80.7903 34.92C79.057 33.9867 77.6836 32.6533 76.6703 30.92C75.6836 29.1867 75.1903 27.16 75.1903 24.84C75.1903 22.5467 75.697 20.5333 76.7103 18.8C77.7236 17.04 79.1103 15.6933 80.8703 14.76C82.6303 13.8267 84.6036 13.36 86.7903 13.36C88.977 13.36 90.9503 13.8267 92.7103 14.76C94.4703 15.6933 95.857 17.04 96.8703 18.8C97.8836 20.5333 98.3903 22.5467 98.3903 24.84C98.3903 27.1333 97.8703 29.16 96.8303 30.92C95.817 32.6533 94.417 33.9867 92.6303 34.92C90.8703 35.8533 88.897 36.32 86.7103 36.32ZM86.7103 30.4C88.017 30.4 89.1236 29.92 90.0303 28.96C90.9636 28 91.4303 26.6267 91.4303 24.84C91.4303 23.0533 90.977 21.68 90.0703 20.72C89.1903 19.76 88.097 19.28 86.7903 19.28C85.457 19.28 84.3503 19.76 83.4703 20.72C82.5903 21.6533 82.1503 23.0267 82.1503 24.84C82.1503 26.6267 82.577 28 83.4303 28.96C84.3103 29.92 85.4036 30.4 86.7103 30.4ZM105.419 11.36C104.219 11.36 103.232 11.0133 102.459 10.32C101.712 9.6 101.339 8.72 101.339 7.68C101.339 6.61333 101.712 5.73333 102.459 5.04C103.232 4.32 104.219 3.96 105.419 3.96C106.592 3.96 107.552 4.32 108.299 5.04C109.072 5.73333 109.459 6.61333 109.459 7.68C109.459 8.72 109.072 9.6 108.299 10.32C107.552 11.0133 106.592 11.36 105.419 11.36ZM108.859 38.88C108.859 41.6267 108.166 43.6 106.779 44.8C105.392 46.0267 103.459 46.64 100.979 46.64H98.2991V40.84H99.9391C100.686 40.84 101.219 40.6933 101.539 40.4C101.859 40.1067 102.019 39.6267 102.019 38.96V13.68H108.859V38.88ZM134.817 24.48C134.817 25.12 134.777 25.7867 134.697 26.48H119.217C119.324 27.8667 119.764 28.9333 120.537 29.68C121.337 30.4 122.31 30.76 123.457 30.76C125.164 30.76 126.35 30.04 127.017 28.6H134.297C133.924 30.0667 133.244 31.3867 132.257 32.56C131.297 33.7333 130.084 34.6533 128.617 35.32C127.15 35.9867 125.51 36.32 123.697 36.32C121.51 36.32 119.564 35.8533 117.857 34.92C116.15 33.9867 114.817 32.6533 113.857 30.92C112.897 29.1867 112.417 27.16 112.417 24.84C112.417 22.52 112.884 20.4933 113.817 18.76C114.777 17.0267 116.11 15.6933 117.817 14.76C119.524 13.8267 121.484 13.36 123.697 13.36C125.857 13.36 127.777 13.8133 129.457 14.72C131.137 15.6267 132.444 16.92 133.377 18.6C134.337 20.28 134.817 22.24 134.817 24.48ZM127.817 22.68C127.817 21.5067 127.417 20.5733 126.617 19.88C125.817 19.1867 124.817 18.84 123.617 18.84C122.47 18.84 121.497 19.1733 120.697 19.84C119.924 20.5067 119.444 21.4533 119.257 22.68H127.817ZM137.065 24.84C137.065 22.52 137.532 20.4933 138.465 18.76C139.425 17.0267 140.745 15.6933 142.425 14.76C144.132 13.8267 146.079 13.36 148.265 13.36C151.065 13.36 153.399 14.0933 155.265 15.56C157.159 17.0267 158.399 19.0933 158.985 21.76H151.705C151.092 20.0533 149.905 19.2 148.145 19.2C146.892 19.2 145.892 19.6933 145.145 20.68C144.399 21.64 144.025 23.0267 144.025 24.84C144.025 26.6533 144.399 28.0533 145.145 29.04C145.892 30 146.892 30.48 148.145 30.48C149.905 30.48 151.092 29.6267 151.705 27.92H158.985C158.399 30.5333 157.159 32.5867 155.265 34.08C153.372 35.5733 151.039 36.32 148.265 36.32C146.079 36.32 144.132 35.8533 142.425 34.92C140.745 33.9867 139.425 32.6533 138.465 30.92C137.532 29.1867 137.065 27.16 137.065 24.84ZM175.084 30.2V36H171.604C169.124 36 167.191 35.4 165.804 34.2C164.417 32.9733 163.724 30.9867 163.724 28.24V19.36H161.004V13.68H163.724V8.24H170.564V13.68H175.044V19.36H170.564V28.32C170.564 28.9867 170.724 29.4667 171.044 29.76C171.364 30.0533 171.897 30.2 172.644 30.2H175.084ZM187.974 36.32C186.027 36.32 184.294 35.9867 182.774 35.32C181.254 34.6533 180.054 33.7467 179.174 32.6C178.294 31.4267 177.801 30.12 177.694 28.68H184.454C184.534 29.4533 184.894 30.08 185.534 30.56C186.174 31.04 186.961 31.28 187.894 31.28C188.747 31.28 189.401 31.12 189.854 30.8C190.334 30.4533 190.574 30.0133 190.574 29.48C190.574 28.84 190.241 28.3733 189.574 28.08C188.907 27.76 187.827 27.4133 186.334 27.04C184.734 26.6667 183.401 26.28 182.334 25.88C181.267 25.4533 180.347 24.8 179.574 23.92C178.801 23.0133 178.414 21.8 178.414 20.28C178.414 19 178.761 17.84 179.454 16.8C180.174 15.7333 181.214 14.8933 182.574 14.28C183.961 13.6667 185.601 13.36 187.494 13.36C190.294 13.36 192.494 14.0533 194.094 15.44C195.721 16.8267 196.654 18.6667 196.894 20.96H190.574C190.467 20.1867 190.121 19.5733 189.534 19.12C188.974 18.6667 188.227 18.44 187.294 18.44C186.494 18.44 185.881 18.6 185.454 18.92C185.027 19.2133 184.814 19.6267 184.814 20.16C184.814 20.8 185.147 21.28 185.814 21.6C186.507 21.92 187.574 22.24 189.014 22.56C190.667 22.9867 192.014 23.4133 193.054 23.84C194.094 24.24 195.001 24.9067 195.774 25.84C196.574 26.7467 196.987 27.9733 197.014 29.52C197.014 30.8267 196.641 32 195.894 33.04C195.174 34.0533 194.121 34.8533 192.734 35.44C191.374 36.0267 189.787 36.32 187.974 36.32Z" fill="white"/>
<path d="M54.76 21.44L57.3775 22.9058L57.3837 22.8948L57.3897 22.8838L54.76 21.44ZM51.32 24.68L49.9059 22.0342V22.0342L51.32 24.68ZM41.32 25.92V22.92H38.32V25.92H41.32ZM41.32 36V39H44.32V36H41.32ZM34.48 36H31.48V39H34.48V36ZM34.48 7.92V4.92H31.48V7.92H34.48ZM51.24 9.08L52.5816 6.39672L52.5816 6.39672L51.24 9.08ZM41.32 13.44V10.44H38.32V13.44H41.32ZM41.32 20.48H38.32V23.48H41.32V20.48ZM52.88 16.96C52.88 18.1073 52.6221 19.1004 52.1303 19.9962L57.3897 22.8838C58.3912 21.0596 58.88 19.0661 58.88 16.96H52.88ZM52.1425 19.9742C51.7155 20.7367 51.0234 21.4369 49.9059 22.0342L52.7341 27.3258C54.71 26.2697 56.3112 24.81 57.3775 22.9058L52.1425 19.9742ZM49.9059 22.0342C48.9076 22.5678 47.5068 22.92 45.56 22.92V28.92C48.1999 28.92 50.6391 28.4456 52.7341 27.3258L49.9059 22.0342ZM45.56 22.92H41.32V28.92H45.56V22.92ZM38.32 25.92V36H44.32V25.92H38.32ZM41.32 33H34.48V39H41.32V33ZM37.48 36V7.92H31.48V36H37.48ZM34.48 10.92H45.56V4.92H34.48V10.92ZM45.56 10.92C47.4671 10.92 48.8727 11.2505 49.8984 11.7633L52.5816 6.39672C50.514 5.36288 48.1329 4.92 45.56 4.92V10.92ZM49.8984 11.7633C50.9716 12.2999 51.6633 12.9735 52.1121 13.7629L57.3279 10.7971C56.2301 8.8665 54.6017 7.40676 52.5816 6.39672L49.8984 11.7633ZM52.1121 13.7629C52.5976 14.6167 52.88 15.6537 52.88 16.96H58.88C58.88 14.7463 58.3891 12.6633 57.3279 10.7971L52.1121 13.7629ZM45.04 23.48C46.7577 23.48 48.6212 23.0816 50.0357 21.726L45.8843 17.394C46.0188 17.2651 45.9357 17.48 45.04 17.48V23.48ZM50.0357 21.726C51.4129 20.4062 51.92 18.6695 51.92 16.96H45.92C45.92 17.2384 45.8799 17.3725 45.8657 17.4109C45.8564 17.436 45.8619 17.4155 45.8843 17.394L50.0357 21.726ZM51.92 16.96C51.92 15.2505 51.4129 13.5138 50.0357 12.194L45.8843 16.526C45.8619 16.5045 45.8564 16.484 45.8657 16.5091C45.8799 16.5475 45.92 16.6816 45.92 16.96H51.92ZM50.0357 12.194C48.6212 10.8384 46.7577 10.44 45.04 10.44V16.44C45.9357 16.44 46.0188 16.6549 45.8843 16.526L50.0357 12.194ZM45.04 10.44H41.32V16.44H45.04V10.44ZM38.32 13.44V20.48H44.32V13.44H38.32ZM41.32 23.48H45.04V17.48H41.32V23.48ZM66.2809 17.4H63.2809V27.4918L68.7938 19.0388L66.2809 17.4ZM69.2809 14.52L70.7818 17.1176L70.8032 17.1052L70.8244 17.0925L69.2809 14.52ZM73.2809 13.44H76.2809V10.44H73.2809V13.44ZM73.2809 20.68V23.68H76.2809V20.68H73.2809ZM67.5609 21.8L69.4956 24.0929L69.5162 24.0755L69.5365 24.0577L67.5609 21.8ZM66.2809 36V39H69.2809V36H66.2809ZM59.4409 36H56.4409V39H59.4409V36ZM59.4409 13.68V10.68H56.4409V13.68H59.4409ZM66.2809 13.68H69.2809V10.68H66.2809V13.68ZM68.7938 19.0388C69.3514 18.1838 70.0128 17.5619 70.7818 17.1176L67.7801 11.9224C66.149 12.8648 64.8105 14.1629 63.7681 15.7612L68.7938 19.0388ZM70.8244 17.0925C71.5353 16.6659 72.3307 16.44 73.2809 16.44V10.44C71.2978 10.44 69.4266 10.9341 67.7374 11.9475L70.8244 17.0925ZM70.2809 13.44V20.68H76.2809V13.44H70.2809ZM73.2809 17.68H71.4009V23.68H73.2809V17.68ZM71.4009 17.68C69.3229 17.68 67.2041 18.1259 65.5854 19.5423L69.5365 24.0577C69.6244 23.9808 70.0656 23.68 71.4009 23.68V17.68ZM65.6263 19.5071C63.763 21.0793 63.2809 23.4752 63.2809 25.64H69.2809C69.2809 24.9335 69.3652 24.4942 69.447 24.2487C69.5224 24.0225 69.5708 24.0294 69.4956 24.0929L65.6263 19.5071ZM63.2809 25.64V36H69.2809V25.64H63.2809ZM66.2809 33H59.4409V39H66.2809V33ZM62.4409 36V13.68H56.4409V36H62.4409ZM59.4409 16.68H66.2809V10.68H59.4409V16.68ZM63.2809 13.68V17.4H69.2809V13.68H63.2809ZM80.7903 34.92L79.368 37.5614L79.3764 37.5659L79.3848 37.5704L80.7903 34.92ZM76.6703 30.92L74.0631 32.4041L74.0717 32.4191L74.0804 32.4341L76.6703 30.92ZM76.7103 18.8L79.3002 20.3141L79.3052 20.3055L79.3102 20.2969L76.7103 18.8ZM80.8703 14.76L82.2758 17.4104V17.4104L80.8703 14.76ZM92.7103 14.76L91.3048 17.4104L92.7103 14.76ZM96.8703 18.8L94.2704 20.2969L94.2754 20.3055L94.2804 20.3141L96.8703 18.8ZM96.8303 30.92L94.2475 29.3938L94.2404 29.4059L96.8303 30.92ZM92.6303 34.92L91.2413 32.261L91.233 32.2653L91.2248 32.2696L92.6303 34.92ZM90.0303 28.96L87.8793 26.8688L87.8642 26.8843L87.8493 26.9001L90.0303 28.96ZM90.0703 20.72L87.8589 22.7472L87.8739 22.7636L87.8893 22.7799L90.0703 20.72ZM83.4703 20.72L85.6531 22.778L85.6675 22.7627L85.6818 22.7472L83.4703 20.72ZM83.4303 28.96L81.1881 30.9531L81.2033 30.9702L81.2188 30.9872L83.4303 28.96ZM86.7103 33.32C84.9648 33.32 83.4817 32.9515 82.1958 32.2696L79.3848 37.5704C81.6189 38.7551 84.0825 39.32 86.7103 39.32V33.32ZM82.2126 32.2786C80.9747 31.612 80.0011 30.6733 79.2602 29.4059L74.0804 32.4341C75.3661 34.6334 77.1392 36.3613 79.368 37.5614L82.2126 32.2786ZM79.2775 29.4359C78.5876 28.2239 78.1903 26.7253 78.1903 24.84H72.1903C72.1903 27.5947 72.7797 30.1494 74.0631 32.4041L79.2775 29.4359ZM78.1903 24.84C78.1903 23.0018 78.5918 21.5258 79.3002 20.3141L74.1204 17.2859C72.8022 19.5408 72.1903 22.0915 72.1903 24.84H78.1903ZM79.3102 20.2969C80.0476 19.0161 81.0247 18.0739 82.2758 17.4104L79.4648 12.1096C77.1959 13.3128 75.3997 15.0639 74.1104 17.3031L79.3102 20.2969ZM82.2758 17.4104C83.5617 16.7285 85.0448 16.36 86.7903 16.36V10.36C84.1625 10.36 81.6989 10.9249 79.4648 12.1096L82.2758 17.4104ZM86.7903 16.36C88.5358 16.36 90.0189 16.7285 91.3048 17.4104L94.1158 12.1096C91.8817 10.9249 89.4182 10.36 86.7903 10.36V16.36ZM91.3048 17.4104C92.5559 18.0739 93.533 19.0161 94.2704 20.2969L99.4702 17.3031C98.181 15.0639 96.3847 13.3128 94.1158 12.1096L91.3048 17.4104ZM94.2804 20.3141C94.9888 21.5258 95.3903 23.0018 95.3903 24.84H101.39C101.39 22.0915 100.778 19.5408 99.4602 17.2859L94.2804 20.3141ZM95.3903 24.84C95.3903 26.6634 94.9822 28.1505 94.2475 29.3938L99.4131 32.4462C100.758 30.1695 101.39 27.6033 101.39 24.84H95.3903ZM94.2404 29.4059C93.513 30.6502 92.5301 31.5877 91.2413 32.261L94.0194 37.579C96.3039 36.3856 98.121 34.6564 99.4202 32.4341L94.2404 29.4059ZM91.2248 32.2696C89.9389 32.9515 88.4558 33.32 86.7103 33.32V39.32C89.3382 39.32 91.8017 38.7551 94.0358 37.5704L91.2248 32.2696ZM86.7103 33.4C88.8522 33.4 90.7447 32.5727 92.2114 31.0199L87.8493 26.9001C87.5025 27.2673 87.1818 27.4 86.7103 27.4V33.4ZM92.1813 31.0512C93.8213 29.3644 94.4303 27.1391 94.4303 24.84H88.4303C88.4303 26.1142 88.106 26.6356 87.8793 26.8688L92.1813 31.0512ZM94.4303 24.84C94.4303 22.5629 93.8468 20.3494 92.2514 18.6601L87.8893 22.7799C88.1072 23.0106 88.4303 23.5438 88.4303 24.84H94.4303ZM92.2818 18.6928C90.8314 17.1106 88.9347 16.28 86.7903 16.28V22.28C87.2593 22.28 87.5493 22.4094 87.8589 22.7472L92.2818 18.6928ZM86.7903 16.28C84.6388 16.28 82.7223 17.0964 81.2589 18.6928L85.6818 22.7472C85.9783 22.4236 86.2751 22.28 86.7903 22.28V16.28ZM81.2875 18.662C79.6994 20.3464 79.1503 22.5787 79.1503 24.84H85.1503C85.1503 23.4746 85.4813 22.9603 85.6531 22.778L81.2875 18.662ZM79.1503 24.84C79.1503 27.0742 79.6846 29.2617 81.1881 30.9531L85.6725 26.9669C85.4694 26.7383 85.1503 26.1792 85.1503 24.84H79.1503ZM81.2188 30.9872C82.6693 32.5694 84.5659 33.4 86.7103 33.4V27.4C86.2414 27.4 85.9514 27.2706 85.6418 26.9328L81.2188 30.9872ZM102.459 10.32L100.377 12.4795L100.416 12.5173L100.456 12.5537L102.459 10.32ZM102.459 5.04L104.5 7.23838L104.503 7.23568L102.459 5.04ZM108.299 5.04L106.217 7.19953L106.256 7.23734L106.296 7.27371L108.299 5.04ZM108.299 10.32L110.34 12.5184L110.343 12.5157L108.299 10.32ZM106.779 44.8L104.816 42.5315L104.804 42.5422L104.791 42.553L106.779 44.8ZM98.2991 46.64H95.2991V49.64H98.2991V46.64ZM98.2991 40.84V37.84H95.2991V40.84H98.2991ZM101.539 40.4L99.5119 38.1885L101.539 40.4ZM102.019 13.68V10.68H99.0191V13.68H102.019ZM108.859 13.68H111.859V10.68H108.859V13.68ZM105.419 8.36C104.836 8.36 104.6 8.21022 104.462 8.08629L100.456 12.5537C101.865 13.8164 103.602 14.36 105.419 14.36V8.36ZM104.541 8.16047C104.383 8.00757 104.339 7.90787 104.339 7.68H98.3391C98.3391 9.53213 99.0419 11.1924 100.377 12.4795L104.541 8.16047ZM104.339 7.68C104.339 7.50255 104.369 7.42035 104.381 7.39165C104.392 7.3661 104.416 7.31667 104.5 7.23838L100.418 2.84162C99.0282 4.13188 98.3391 5.82318 98.3391 7.68H104.339ZM104.503 7.23568C104.645 7.10348 104.867 6.96 105.419 6.96V0.959998C103.571 0.959998 101.819 1.53651 100.415 2.84432L104.503 7.23568ZM105.419 6.96C105.926 6.96 106.104 7.09079 106.217 7.19953L110.381 2.88047C109.001 1.54921 107.259 0.959998 105.419 0.959998V6.96ZM106.296 7.27371C106.391 7.3583 106.415 7.40897 106.423 7.42682C106.431 7.44663 106.459 7.51635 106.459 7.68H112.459C112.459 5.7871 111.729 4.08595 110.302 2.80629L106.296 7.27371ZM106.459 7.68C106.459 7.87218 106.43 7.96152 106.255 8.12432L110.343 12.5157C111.715 11.2385 112.459 9.56782 112.459 7.68H106.459ZM106.258 8.12162C106.15 8.22169 105.958 8.36 105.419 8.36V14.36C107.227 14.36 108.955 13.805 110.34 12.5184L106.258 8.12162ZM105.859 38.88C105.859 41.1945 105.272 42.1365 104.816 42.5315L108.742 47.0685C111.059 45.0635 111.859 42.0588 111.859 38.88H105.859ZM104.791 42.553C104.116 43.1502 102.979 43.64 100.979 43.64V49.64C103.939 49.64 106.669 48.9031 108.767 47.047L104.791 42.553ZM100.979 43.64H98.2991V49.64H100.979V43.64ZM101.299 46.64V40.84H95.2991V46.64H101.299ZM98.2991 43.84H99.9391V37.84H98.2991V43.84ZM99.9391 43.84C100.939 43.84 102.412 43.6698 103.566 42.6115L99.5119 38.1885C99.7855 37.9377 100.034 37.8566 100.104 37.8374C100.168 37.8195 100.131 37.84 99.9391 37.84V43.84ZM103.566 42.6115C104.773 41.5054 105.019 40.0206 105.019 38.96H99.0191C99.0191 39.0672 99.0045 39.0168 99.053 38.8713C99.1074 38.7083 99.238 38.4396 99.5119 38.1885L103.566 42.6115ZM105.019 38.96V13.68H99.0191V38.96H105.019ZM102.019 16.68H108.859V10.68H102.019V16.68ZM105.859 13.68V38.88H111.859V13.68H105.859ZM134.697 26.48V29.48H137.371L137.677 26.8239L134.697 26.48ZM119.217 26.48V23.48H115.977L116.226 26.7101L119.217 26.48ZM120.537 29.68L118.453 31.8382L118.491 31.8747L118.53 31.9099L120.537 29.68ZM127.017 28.6V25.6H125.1L124.294 27.3396L127.017 28.6ZM134.297 28.6L137.204 29.34L138.156 25.6H134.297V28.6ZM132.257 32.56L129.961 30.6292L129.948 30.6447L129.935 30.6603L132.257 32.56ZM128.617 35.32L129.858 38.0511L128.617 35.32ZM117.857 34.92L116.417 37.5521L117.857 34.92ZM113.857 30.92L116.481 29.4665V29.4665L113.857 30.92ZM113.817 18.76L111.193 17.3065L111.184 17.322L111.175 17.3377L113.817 18.76ZM117.817 14.76L119.256 17.3921L117.817 14.76ZM129.457 14.72L128.032 17.3601L128.032 17.3601L129.457 14.72ZM133.377 18.6L130.754 20.0569L130.763 20.0727L130.772 20.0884L133.377 18.6ZM127.817 22.68V25.68H130.817V22.68H127.817ZM126.617 19.88L128.582 17.6129V17.6129L126.617 19.88ZM120.697 19.84L118.776 17.5353L118.757 17.5514L118.738 17.5678L120.697 19.84ZM119.257 22.68L116.291 22.2287L115.766 25.68H119.257V22.68ZM131.817 24.48C131.817 24.9953 131.785 25.5468 131.717 26.1361L137.677 26.8239C137.769 26.0265 137.817 25.2447 137.817 24.48H131.817ZM134.697 23.48H119.217V29.48H134.697V23.48ZM116.226 26.7101C116.372 28.6082 117.012 30.4463 118.453 31.8382L122.621 27.5218C122.516 27.4203 122.275 27.1251 122.208 26.2499L116.226 26.7101ZM118.53 31.9099C119.919 33.1599 121.622 33.76 123.457 33.76V27.76C122.998 27.76 122.755 27.6401 122.544 27.4501L118.53 31.9099ZM123.457 33.76C124.733 33.76 126.024 33.4883 127.183 32.7848C128.357 32.0728 129.192 31.0415 129.739 29.8604L124.294 27.3396C124.175 27.5985 124.084 27.6472 124.071 27.6552C124.043 27.6717 123.887 27.76 123.457 27.76V33.76ZM127.017 31.6H134.297V25.6H127.017V31.6ZM131.39 27.86C131.129 28.8829 130.661 29.7971 129.961 30.6292L134.553 34.4908C135.827 32.9763 136.718 31.2504 137.204 29.34L131.39 27.86ZM129.935 30.6603C129.285 31.455 128.45 32.1005 127.375 32.5889L129.858 38.0511C131.717 37.2061 133.309 36.0116 134.579 34.4597L129.935 30.6603ZM127.375 32.5889C126.345 33.0573 125.136 33.32 123.697 33.32V39.32C125.885 39.32 127.955 38.916 129.858 38.0511L127.375 32.5889ZM123.697 33.32C121.95 33.32 120.509 32.9511 119.296 32.2879L116.417 37.5521C118.618 38.7555 121.071 39.32 123.697 39.32V33.32ZM119.296 32.2879C118.098 31.6326 117.171 30.7124 116.481 29.4665L111.232 32.3735C112.462 34.5942 114.202 36.3408 116.417 37.5521L119.296 32.2879ZM116.481 29.4665C115.807 28.2486 115.417 26.7388 115.417 24.84H109.417C109.417 27.5812 109.987 30.1247 111.232 32.3735L116.481 29.4665ZM115.417 24.84C115.417 22.9278 115.799 21.4066 116.458 20.1823L111.175 17.3377C109.968 19.5801 109.417 22.1122 109.417 24.84H115.417ZM116.441 20.2135C117.131 18.9676 118.058 18.0474 119.256 17.3921L116.377 12.1279C114.162 13.3392 112.422 15.0858 111.193 17.3065L116.441 20.2135ZM119.256 17.3921C120.464 16.7317 121.916 16.36 123.697 16.36V10.36C121.051 10.36 118.583 10.9216 116.377 12.1279L119.256 17.3921ZM123.697 16.36C125.426 16.36 126.845 16.7192 128.032 17.3601L130.882 12.0799C128.709 10.9074 126.288 10.36 123.697 10.36V16.36ZM128.032 17.3601C129.205 17.9928 130.097 18.874 130.754 20.0569L135.999 17.1431C134.79 14.966 133.069 13.2605 130.882 12.0799L128.032 17.3601ZM130.772 20.0884C131.435 21.248 131.817 22.6789 131.817 24.48H137.817C137.817 21.8011 137.239 19.312 135.982 17.1116L130.772 20.0884ZM130.817 22.68C130.817 20.7424 130.115 18.9419 128.582 17.6129L124.652 22.1471C124.724 22.2096 124.746 22.25 124.759 22.2818C124.776 22.3214 124.817 22.437 124.817 22.68H130.817ZM128.582 17.6129C127.163 16.3837 125.436 15.84 123.617 15.84V21.84C124.198 21.84 124.47 21.9897 124.652 22.1471L128.582 17.6129ZM123.617 15.84C121.844 15.84 120.171 16.3731 118.776 17.5353L122.617 22.1447C122.823 21.9736 123.096 21.84 123.617 21.84V15.84ZM118.738 17.5678C117.312 18.7969 116.561 20.4531 116.291 22.2287L122.223 23.1313C122.326 22.4536 122.535 22.2164 122.656 22.1122L118.738 17.5678ZM119.257 25.68H127.817V19.68H119.257V25.68ZM138.465 18.76L135.841 17.3065L135.832 17.322L135.824 17.3377L138.465 18.76ZM142.425 14.76L140.986 12.1279L140.977 12.1327L140.968 12.1375L142.425 14.76ZM155.265 15.56L153.412 17.919L153.42 17.9253L153.428 17.9316L155.265 15.56ZM158.985 21.76V24.76H162.717L161.915 21.1154L158.985 21.76ZM151.705 21.76L148.882 22.7746L149.596 24.76H151.705V21.76ZM145.145 20.68L147.513 22.5218L147.526 22.5062L147.538 22.4903L145.145 20.68ZM145.145 29.04L142.753 30.8503L142.765 30.8662L142.777 30.8818L145.145 29.04ZM151.705 27.92V24.92H149.596L148.882 26.9054L151.705 27.92ZM158.985 27.92L161.912 28.5771L162.733 24.92H158.985V27.92ZM155.265 34.08L153.407 31.7245L155.265 34.08ZM142.425 34.92L140.968 37.5425L140.977 37.5473L140.986 37.5521L142.425 34.92ZM138.465 30.92L135.824 32.3423L135.832 32.358L135.841 32.3735L138.465 30.92ZM140.065 24.84C140.065 22.9278 140.448 21.4066 141.107 20.1823L135.824 17.3377C134.616 19.5801 134.065 22.1122 134.065 24.84H140.065ZM141.09 20.2135C141.786 18.9554 142.709 18.0343 143.882 17.3825L140.968 12.1375C138.782 13.3523 137.064 15.098 135.841 17.3065L141.09 20.2135ZM143.865 17.3921C145.078 16.7289 146.518 16.36 148.265 16.36V10.36C145.639 10.36 143.186 10.9245 140.986 12.1279L143.865 17.3921ZM148.265 16.36C150.519 16.36 152.165 16.939 153.412 17.919L157.119 13.201C154.633 11.2477 151.612 10.36 148.265 10.36V16.36ZM153.428 17.9316C154.689 18.9085 155.597 20.322 156.055 22.4046L161.915 21.1154C161.2 17.8646 159.628 15.1448 157.103 13.1883L153.428 17.9316ZM158.985 18.76H151.705V24.76H158.985V18.76ZM154.529 20.7454C154.066 19.4594 153.3 18.2626 152.107 17.4044C150.906 16.5409 149.523 16.2 148.145 16.2V22.2C148.344 22.2 148.463 22.224 148.523 22.2416C148.579 22.2578 148.599 22.2719 148.604 22.2756C148.61 22.2798 148.638 22.3004 148.684 22.3655C148.732 22.4346 148.805 22.5613 148.882 22.7746L154.529 20.7454ZM148.145 16.2C145.967 16.2 144.075 17.1223 142.753 18.8697L147.538 22.4903C147.66 22.3279 147.745 22.2788 147.783 22.2604C147.821 22.2414 147.921 22.2 148.145 22.2V16.2ZM142.777 18.8382C141.463 20.5278 141.025 22.673 141.025 24.84H147.025C147.025 23.3804 147.334 22.7522 147.513 22.5218L142.777 18.8382ZM141.025 24.84C141.025 27.0148 141.466 29.1498 142.753 30.8503L147.538 27.2297C147.331 26.9569 147.025 26.2919 147.025 24.84H141.025ZM142.777 30.8818C144.112 32.5982 145.999 33.48 148.145 33.48V27.48C147.785 27.48 147.672 27.4018 147.513 27.1982L142.777 30.8818ZM148.145 33.48C149.523 33.48 150.906 33.1391 152.107 32.2756C153.3 31.4174 154.066 30.2206 154.529 28.9346L148.882 26.9054C148.805 27.1187 148.732 27.2454 148.684 27.3145C148.638 27.3796 148.61 27.4002 148.604 27.4044C148.599 27.4081 148.579 27.4222 148.523 27.4384C148.463 27.456 148.344 27.48 148.145 27.48V33.48ZM151.705 30.92H158.985V24.92H151.705V30.92ZM156.058 27.2629C155.605 29.2832 154.7 30.7054 153.407 31.7245L157.123 36.4355C159.618 34.4679 161.193 31.7834 161.912 28.5771L156.058 27.2629ZM153.407 31.7245C152.121 32.7391 150.471 33.32 148.265 33.32V39.32C151.607 39.32 154.623 38.4076 157.123 36.4355L153.407 31.7245ZM148.265 33.32C146.518 33.32 145.078 32.9511 143.865 32.2879L140.986 37.5521C143.186 38.7555 145.639 39.32 148.265 39.32V33.32ZM143.882 32.2975C142.709 31.6457 141.786 30.7246 141.09 29.4665L135.841 32.3735C137.064 34.582 138.782 36.3277 140.968 37.5425L143.882 32.2975ZM141.107 29.4977C140.448 28.2734 140.065 26.7522 140.065 24.84H134.065C134.065 27.5678 134.616 30.0999 135.824 32.3423L141.107 29.4977ZM175.084 30.2H178.084V27.2H175.084V30.2ZM175.084 36V39H178.084V36H175.084ZM165.804 34.2L163.816 36.447L163.829 36.4578L163.841 36.4685L165.804 34.2ZM163.724 19.36H166.724V16.36H163.724V19.36ZM161.004 19.36H158.004V22.36H161.004V19.36ZM161.004 13.68V10.68H158.004V13.68H161.004ZM163.724 13.68V16.68H166.724V13.68H163.724ZM163.724 8.24V5.24H160.724V8.24H163.724ZM170.564 8.24H173.564V5.24H170.564V8.24ZM170.564 13.68H167.564V16.68H170.564V13.68ZM175.044 13.68H178.044V10.68H175.044V13.68ZM175.044 19.36V22.36H178.044V19.36H175.044ZM170.564 19.36V16.36H167.564V19.36H170.564ZM171.044 29.76L169.017 31.9715V31.9715L171.044 29.76ZM172.084 30.2V36H178.084V30.2H172.084ZM175.084 33H171.604V39H175.084V33ZM171.604 33C169.589 33 168.442 32.5157 167.767 31.9315L163.841 36.4685C165.939 38.2843 168.659 39 171.604 39V33ZM167.792 31.953C167.308 31.5251 166.724 30.5479 166.724 28.24H160.724C160.724 31.4255 161.527 34.4216 163.816 36.447L167.792 31.953ZM166.724 28.24V19.36H160.724V28.24H166.724ZM163.724 16.36H161.004V22.36H163.724V16.36ZM164.004 19.36V13.68H158.004V19.36H164.004ZM161.004 16.68H163.724V10.68H161.004V16.68ZM166.724 13.68V8.24H160.724V13.68H166.724ZM163.724 11.24H170.564V5.24H163.724V11.24ZM167.564 8.24V13.68H173.564V8.24H167.564ZM170.564 16.68H175.044V10.68H170.564V16.68ZM172.044 13.68V19.36H178.044V13.68H172.044ZM175.044 16.36H170.564V22.36H175.044V16.36ZM167.564 19.36V28.32H173.564V19.36H167.564ZM167.564 28.32C167.564 29.3806 167.81 30.8654 169.017 31.9715L173.071 27.5485C173.345 27.7996 173.476 28.0683 173.53 28.2313C173.579 28.3768 173.564 28.4272 173.564 28.32H167.564ZM169.017 31.9715C170.171 33.0298 171.644 33.2 172.644 33.2V27.2C172.452 27.2 172.415 27.1795 172.48 27.1974C172.549 27.2166 172.798 27.2977 173.071 27.5485L169.017 31.9715ZM172.644 33.2H175.084V27.2H172.644V33.2ZM182.774 35.32L183.979 32.5726L182.774 35.32ZM179.174 32.6L176.774 34.4L176.784 34.4133L176.794 34.4265L179.174 32.6ZM177.694 28.68V25.68H174.464L174.702 28.9016L177.694 28.68ZM184.454 28.68L187.438 28.3713L187.16 25.68H184.454V28.68ZM185.534 30.56L187.334 28.16L185.534 30.56ZM189.854 30.8L191.584 33.2509L191.597 33.2415L191.611 33.232L189.854 30.8ZM189.574 28.08L188.276 30.7846L188.321 30.806L188.366 30.8259L189.574 28.08ZM186.334 27.04L187.062 24.1296L187.039 24.1238L187.016 24.1185L186.334 27.04ZM182.334 25.88L181.22 28.6654L181.25 28.6775L181.281 28.689L182.334 25.88ZM179.574 23.92L177.292 25.8668L177.306 25.8837L177.321 25.9003L179.574 23.92ZM179.454 16.8L176.968 15.1216L176.963 15.1287L176.958 15.1359L179.454 16.8ZM182.574 14.28L181.361 11.5364L181.351 11.5408L181.341 11.5452L182.574 14.28ZM194.094 15.44L192.129 17.7071L192.139 17.7151L192.148 17.723L194.094 15.44ZM196.894 20.96V23.96H200.224L199.878 20.6478L196.894 20.96ZM190.574 20.96L187.602 21.3699L187.959 23.96H190.574V20.96ZM189.534 19.12L187.646 21.4517L187.673 21.4731L187.7 21.4939L189.534 19.12ZM185.454 18.92L187.154 21.3921L187.205 21.3571L187.254 21.32L185.454 18.92ZM185.814 21.6L184.516 24.3046L184.536 24.3144L184.557 24.3239L185.814 21.6ZM189.014 22.56L189.764 19.6552L189.714 19.6425L189.665 19.6314L189.014 22.56ZM193.054 23.84L191.915 26.6155L191.946 26.6281L191.977 26.64L193.054 23.84ZM195.774 25.84L193.464 27.7541L193.494 27.7899L193.525 27.8249L195.774 25.84ZM197.014 29.52H200.014V29.4941L200.014 29.4683L197.014 29.52ZM195.894 33.04L193.457 31.2904L193.453 31.2964L193.449 31.3024L195.894 33.04ZM192.734 35.44L191.565 32.6771L191.555 32.6812L191.546 32.6854L192.734 35.44ZM187.974 33.32C186.371 33.32 185.059 33.0464 183.979 32.5726L181.569 38.0674C183.529 38.9269 185.683 39.32 187.974 39.32V33.32ZM183.979 32.5726C182.853 32.0786 182.083 31.4631 181.554 30.7735L176.794 34.4265C178.025 36.0303 179.655 37.2281 181.569 38.0674L183.979 32.5726ZM181.574 30.8C181.032 30.0778 180.749 29.317 180.686 28.4584L174.702 28.9016C174.852 30.923 175.556 32.7756 176.774 34.4L181.574 30.8ZM177.694 31.68H184.454V25.68H177.694V31.68ZM181.47 28.9887C181.639 30.6206 182.447 31.9948 183.734 32.96L187.334 28.16C187.317 28.1473 187.319 28.1467 187.332 28.1612C187.346 28.1762 187.366 28.2013 187.385 28.2356C187.405 28.2701 187.419 28.3041 187.429 28.333C187.437 28.3614 187.439 28.376 187.438 28.3713L181.47 28.9887ZM183.734 32.96C184.976 33.8918 186.424 34.28 187.894 34.28V28.28C187.498 28.28 187.372 28.1882 187.334 28.16L183.734 32.96ZM187.894 34.28C189.055 34.28 190.419 34.0734 191.584 33.2509L188.124 28.3491C188.262 28.2519 188.348 28.237 188.31 28.2461C188.27 28.256 188.141 28.28 187.894 28.28V34.28ZM191.611 33.232C192.772 32.3934 193.574 31.0934 193.574 29.48H187.574C187.574 29.2779 187.625 29.0224 187.76 28.7734C187.89 28.5353 188.04 28.4097 188.098 28.368L191.611 33.232ZM193.574 29.48C193.574 28.6105 193.337 27.7068 192.765 26.9063C192.211 26.1305 191.478 25.6401 190.782 25.3341L188.366 30.8259C188.337 30.8132 188.104 30.7029 187.883 30.3937C187.644 30.0599 187.574 29.7095 187.574 29.48H193.574ZM190.872 25.3754C189.916 24.9166 188.588 24.5112 187.062 24.1296L185.606 29.9504C187.067 30.3154 187.898 30.6034 188.276 30.7846L190.872 25.3754ZM187.016 24.1185C185.492 23.7629 184.293 23.4105 183.387 23.071L181.281 28.689C182.509 29.1495 183.976 29.5704 185.652 29.9615L187.016 24.1185ZM183.448 23.0946C182.828 22.8466 182.296 22.4727 181.828 21.9397L177.321 25.9003C178.399 27.1273 179.707 28.0601 181.22 28.6654L183.448 23.0946ZM181.857 21.9732C181.662 21.7453 181.414 21.2879 181.414 20.28H175.414C175.414 22.3121 175.939 24.2814 177.292 25.8668L181.857 21.9732ZM181.414 20.28C181.414 19.5771 181.594 18.9989 181.95 18.4641L176.958 15.1359C175.928 16.6811 175.414 18.4229 175.414 20.28H181.414ZM181.941 18.4784C182.302 17.9429 182.873 17.4363 183.807 17.0148L181.341 11.5452C179.555 12.3504 178.046 13.5238 176.968 15.1216L181.941 18.4784ZM183.788 17.0236C184.71 16.6158 185.918 16.36 187.494 16.36V10.36C185.284 10.36 183.212 10.7175 181.361 11.5364L183.788 17.0236ZM187.494 16.36C189.808 16.36 191.23 16.9277 192.129 17.7071L196.059 13.1729C193.758 11.179 190.78 10.36 187.494 10.36V16.36ZM192.148 17.723C193.14 18.5687 193.744 19.6785 193.91 21.2722L199.878 20.6478C199.565 17.6548 198.302 15.0846 196.04 13.157L192.148 17.723ZM196.894 17.96H190.574V23.96H196.894V17.96ZM193.546 20.5501C193.338 19.0441 192.612 17.7074 191.368 16.7461L187.7 21.4939C187.7 21.4939 187.688 21.4849 187.671 21.4655C187.654 21.4458 187.637 21.422 187.622 21.3962C187.608 21.3706 187.6 21.351 187.598 21.3422C187.595 21.334 187.598 21.3416 187.602 21.3699L193.546 20.5501ZM191.422 16.7883C190.187 15.7889 188.709 15.44 187.294 15.44V21.44C187.521 21.44 187.641 21.468 187.683 21.4806C187.717 21.491 187.691 21.4881 187.646 21.4517L191.422 16.7883ZM187.294 15.44C186.153 15.44 184.802 15.6591 183.654 16.52L187.254 21.32C187.103 21.4334 186.992 21.4627 186.991 21.4629C186.991 21.4629 187.015 21.4568 187.067 21.451C187.118 21.4451 187.193 21.44 187.294 21.44V15.44ZM183.754 16.4479C182.485 17.3207 181.814 18.6742 181.814 20.16H187.814C187.814 20.3015 187.783 20.5486 187.64 20.8259C187.495 21.1067 187.301 21.2909 187.154 21.3921L183.754 16.4479ZM181.814 20.16C181.814 21.0307 182.051 21.9209 182.6 22.7112C183.131 23.4765 183.837 23.9785 184.516 24.3046L187.112 18.8954C187.125 18.9015 187.33 19.0035 187.528 19.2888C187.744 19.5991 187.814 19.9293 187.814 20.16H181.814ZM184.557 24.3239C185.549 24.7819 186.87 25.1566 188.363 25.4886L189.665 19.6314C188.279 19.3234 187.466 19.0581 187.071 18.8761L184.557 24.3239ZM188.264 25.4648C189.846 25.8729 191.049 26.26 191.915 26.6155L194.193 21.0645C192.979 20.5666 191.489 20.1004 189.764 19.6552L188.264 25.4648ZM191.977 26.64C192.495 26.8394 192.989 27.1812 193.464 27.7541L198.084 23.9259C197.012 22.6322 195.693 21.6406 194.131 21.04L191.977 26.64ZM193.525 27.8249C193.733 28.0615 193.997 28.5342 194.015 29.5717L200.014 29.4683C199.978 27.4125 199.415 25.4318 198.024 23.8551L193.525 27.8249ZM194.014 29.52C194.014 30.2128 193.83 30.7715 193.457 31.2904L198.331 34.7896C199.452 33.2285 200.014 31.4406 200.014 29.52H194.014ZM193.449 31.3024C193.113 31.7748 192.548 32.2612 191.565 32.6771L193.903 38.2029C195.693 37.4454 197.235 36.3319 198.34 34.7776L193.449 31.3024ZM191.546 32.6854C190.635 33.0782 189.468 33.32 187.974 33.32V39.32C190.107 39.32 192.113 38.9751 193.922 38.1946L191.546 32.6854Z" fill="#0069FF" mask="url(#path-2-outside-1_4078_458)"/>
</svg>
