<svg width="230" height="42" viewBox="0 0 230 42" fill="none" xmlns="http://www.w3.org/2000/svg">
<rect y="34" width="230" height="8" fill="#0069FF"/>
<mask id="path-2-outside-1_4078_457" maskUnits="userSpaceOnUse" x="26" y="0" width="178" height="40" fill="black">
<rect fill="white" x="26" width="178" height="40"/>
<path d="M40.64 36.28C38.5867 36.28 36.7467 35.9467 35.12 35.28C33.4933 34.6133 32.1867 33.6267 31.2 32.32C30.24 31.0133 29.7333 29.44 29.68 27.6H36.96C37.0667 28.64 37.4267 29.44 38.04 30C38.6533 30.5333 39.4533 30.8 40.44 30.8C41.4533 30.8 42.2533 30.5733 42.84 30.12C43.4267 29.64 43.72 28.9867 43.72 28.16C43.72 27.4667 43.48 26.8933 43 26.44C42.5467 25.9867 41.9733 25.6133 41.28 25.32C40.6133 25.0267 39.6533 24.6933 38.4 24.32C36.5867 23.76 35.1067 23.2 33.96 22.64C32.8133 22.08 31.8267 21.2533 31 20.16C30.1733 19.0667 29.76 17.64 29.76 15.88C29.76 13.2667 30.7067 11.2267 32.6 9.76C34.4933 8.26667 36.96 7.52 40 7.52C43.0933 7.52 45.5867 8.26667 47.48 9.76C49.3733 11.2267 50.3867 13.28 50.52 15.92H43.12C43.0667 15.0133 42.7333 14.3067 42.12 13.8C41.5067 13.2667 40.72 13 39.76 13C38.9333 13 38.2667 13.2267 37.76 13.68C37.2533 14.1067 37 14.7333 37 15.56C37 16.4667 37.4267 17.1733 38.28 17.68C39.1333 18.1867 40.4667 18.7333 42.28 19.32C44.0933 19.9333 45.56 20.52 46.68 21.08C47.8267 21.64 48.8133 22.4533 49.64 23.52C50.4667 24.5867 50.88 25.96 50.88 27.64C50.88 29.24 50.4667 30.6933 49.64 32C48.84 33.3067 47.6667 34.3467 46.12 35.12C44.5733 35.8933 42.7467 36.28 40.64 36.28ZM76.1294 24.48C76.1294 25.12 76.0894 25.7867 76.0094 26.48H60.5294C60.636 27.8667 61.076 28.9333 61.8494 29.68C62.6494 30.4 63.6227 30.76 64.7694 30.76C66.476 30.76 67.6627 30.04 68.3294 28.6H75.6094C75.236 30.0667 74.556 31.3867 73.5694 32.56C72.6094 33.7333 71.396 34.6533 69.9294 35.32C68.4627 35.9867 66.8227 36.32 65.0094 36.32C62.8227 36.32 60.876 35.8533 59.1694 34.92C57.4627 33.9867 56.1294 32.6533 55.1694 30.92C54.2094 29.1867 53.7294 27.16 53.7294 24.84C53.7294 22.52 54.196 20.4933 55.1294 18.76C56.0894 17.0267 57.4227 15.6933 59.1294 14.76C60.836 13.8267 62.796 13.36 65.0094 13.36C67.1694 13.36 69.0894 13.8133 70.7694 14.72C72.4494 15.6267 73.756 16.92 74.6894 18.6C75.6494 20.28 76.1294 22.24 76.1294 24.48ZM69.1294 22.68C69.1294 21.5067 68.7294 20.5733 67.9294 19.88C67.1294 19.1867 66.1294 18.84 64.9294 18.84C63.7827 18.84 62.8094 19.1733 62.0094 19.84C61.236 20.5067 60.756 21.4533 60.5694 22.68H69.1294ZM86.5778 17.4C87.3778 16.1733 88.3778 15.2133 89.5778 14.52C90.7778 13.8 92.1111 13.44 93.5778 13.44V20.68H91.6978C89.9911 20.68 88.7111 21.0533 87.8578 21.8C87.0045 22.52 86.5778 23.8 86.5778 25.64V36H79.7378V13.68H86.5778V17.4ZM106.887 29.6L111.727 13.68H119.007L111.087 36H102.647L94.7272 13.68H102.047L106.887 29.6ZM125.326 11.36C124.126 11.36 123.14 11.0133 122.366 10.32C121.62 9.6 121.246 8.72 121.246 7.68C121.246 6.61333 121.62 5.73333 122.366 5.04C123.14 4.32 124.126 3.96 125.326 3.96C126.5 3.96 127.46 4.32 128.206 5.04C128.98 5.73333 129.366 6.61333 129.366 7.68C129.366 8.72 128.98 9.6 128.206 10.32C127.46 11.0133 126.5 11.36 125.326 11.36ZM128.726 13.68V36H121.886V13.68H128.726ZM132.323 24.84C132.323 22.52 132.79 20.4933 133.723 18.76C134.683 17.0267 136.003 15.6933 137.683 14.76C139.39 13.8267 141.336 13.36 143.523 13.36C146.323 13.36 148.656 14.0933 150.523 15.56C152.416 17.0267 153.656 19.0933 154.243 21.76H146.963C146.35 20.0533 145.163 19.2 143.403 19.2C142.15 19.2 141.15 19.6933 140.403 20.68C139.656 21.64 139.283 23.0267 139.283 24.84C139.283 26.6533 139.656 28.0533 140.403 29.04C141.15 30 142.15 30.48 143.403 30.48C145.163 30.48 146.35 29.6267 146.963 27.92H154.243C153.656 30.5333 152.416 32.5867 150.523 34.08C148.63 35.5733 146.296 36.32 143.523 36.32C141.336 36.32 139.39 35.8533 137.683 34.92C136.003 33.9867 134.683 32.6533 133.723 30.92C132.79 29.1867 132.323 27.16 132.323 24.84ZM178.942 24.48C178.942 25.12 178.902 25.7867 178.822 26.48H163.342C163.449 27.8667 163.889 28.9333 164.662 29.68C165.462 30.4 166.435 30.76 167.582 30.76C169.289 30.76 170.475 30.04 171.142 28.6H178.422C178.049 30.0667 177.369 31.3867 176.382 32.56C175.422 33.7333 174.209 34.6533 172.742 35.32C171.275 35.9867 169.635 36.32 167.822 36.32C165.635 36.32 163.689 35.8533 161.982 34.92C160.275 33.9867 158.942 32.6533 157.982 30.92C157.022 29.1867 156.542 27.16 156.542 24.84C156.542 22.52 157.009 20.4933 157.942 18.76C158.902 17.0267 160.235 15.6933 161.942 14.76C163.649 13.8267 165.609 13.36 167.822 13.36C169.982 13.36 171.902 13.8133 173.582 14.72C175.262 15.6267 176.569 16.92 177.502 18.6C178.462 20.28 178.942 22.24 178.942 24.48ZM171.942 22.68C171.942 21.5067 171.542 20.5733 170.742 19.88C169.942 19.1867 168.942 18.84 167.742 18.84C166.595 18.84 165.622 19.1733 164.822 19.84C164.049 20.5067 163.569 21.4533 163.382 22.68H171.942ZM191.63 36.32C189.684 36.32 187.95 35.9867 186.43 35.32C184.91 34.6533 183.71 33.7467 182.83 32.6C181.95 31.4267 181.457 30.12 181.35 28.68H188.11C188.19 29.4533 188.55 30.08 189.19 30.56C189.83 31.04 190.617 31.28 191.55 31.28C192.404 31.28 193.057 31.12 193.51 30.8C193.99 30.4533 194.23 30.0133 194.23 29.48C194.23 28.84 193.897 28.3733 193.23 28.08C192.564 27.76 191.484 27.4133 189.99 27.04C188.39 26.6667 187.057 26.28 185.99 25.88C184.924 25.4533 184.004 24.8 183.23 23.92C182.457 23.0133 182.07 21.8 182.07 20.28C182.07 19 182.417 17.84 183.11 16.8C183.83 15.7333 184.87 14.8933 186.23 14.28C187.617 13.6667 189.257 13.36 191.15 13.36C193.95 13.36 196.15 14.0533 197.75 15.44C199.377 16.8267 200.31 18.6667 200.55 20.96H194.23C194.124 20.1867 193.777 19.5733 193.19 19.12C192.63 18.6667 191.884 18.44 190.95 18.44C190.15 18.44 189.537 18.6 189.11 18.92C188.684 19.2133 188.47 19.6267 188.47 20.16C188.47 20.8 188.804 21.28 189.47 21.6C190.164 21.92 191.23 22.24 192.67 22.56C194.324 22.9867 195.67 23.4133 196.71 23.84C197.75 24.24 198.657 24.9067 199.43 25.84C200.23 26.7467 200.644 27.9733 200.67 29.52C200.67 30.8267 200.297 32 199.55 33.04C198.83 34.0533 197.777 34.8533 196.39 35.44C195.03 36.0267 193.444 36.32 191.63 36.32Z"/>
</mask>
<path d="M40.64 36.28C38.5867 36.28 36.7467 35.9467 35.12 35.28C33.4933 34.6133 32.1867 33.6267 31.2 32.32C30.24 31.0133 29.7333 29.44 29.68 27.6H36.96C37.0667 28.64 37.4267 29.44 38.04 30C38.6533 30.5333 39.4533 30.8 40.44 30.8C41.4533 30.8 42.2533 30.5733 42.84 30.12C43.4267 29.64 43.72 28.9867 43.72 28.16C43.72 27.4667 43.48 26.8933 43 26.44C42.5467 25.9867 41.9733 25.6133 41.28 25.32C40.6133 25.0267 39.6533 24.6933 38.4 24.32C36.5867 23.76 35.1067 23.2 33.96 22.64C32.8133 22.08 31.8267 21.2533 31 20.16C30.1733 19.0667 29.76 17.64 29.76 15.88C29.76 13.2667 30.7067 11.2267 32.6 9.76C34.4933 8.26667 36.96 7.52 40 7.52C43.0933 7.52 45.5867 8.26667 47.48 9.76C49.3733 11.2267 50.3867 13.28 50.52 15.92H43.12C43.0667 15.0133 42.7333 14.3067 42.12 13.8C41.5067 13.2667 40.72 13 39.76 13C38.9333 13 38.2667 13.2267 37.76 13.68C37.2533 14.1067 37 14.7333 37 15.56C37 16.4667 37.4267 17.1733 38.28 17.68C39.1333 18.1867 40.4667 18.7333 42.28 19.32C44.0933 19.9333 45.56 20.52 46.68 21.08C47.8267 21.64 48.8133 22.4533 49.64 23.52C50.4667 24.5867 50.88 25.96 50.88 27.64C50.88 29.24 50.4667 30.6933 49.64 32C48.84 33.3067 47.6667 34.3467 46.12 35.12C44.5733 35.8933 42.7467 36.28 40.64 36.28ZM76.1294 24.48C76.1294 25.12 76.0894 25.7867 76.0094 26.48H60.5294C60.636 27.8667 61.076 28.9333 61.8494 29.68C62.6494 30.4 63.6227 30.76 64.7694 30.76C66.476 30.76 67.6627 30.04 68.3294 28.6H75.6094C75.236 30.0667 74.556 31.3867 73.5694 32.56C72.6094 33.7333 71.396 34.6533 69.9294 35.32C68.4627 35.9867 66.8227 36.32 65.0094 36.32C62.8227 36.32 60.876 35.8533 59.1694 34.92C57.4627 33.9867 56.1294 32.6533 55.1694 30.92C54.2094 29.1867 53.7294 27.16 53.7294 24.84C53.7294 22.52 54.196 20.4933 55.1294 18.76C56.0894 17.0267 57.4227 15.6933 59.1294 14.76C60.836 13.8267 62.796 13.36 65.0094 13.36C67.1694 13.36 69.0894 13.8133 70.7694 14.72C72.4494 15.6267 73.756 16.92 74.6894 18.6C75.6494 20.28 76.1294 22.24 76.1294 24.48ZM69.1294 22.68C69.1294 21.5067 68.7294 20.5733 67.9294 19.88C67.1294 19.1867 66.1294 18.84 64.9294 18.84C63.7827 18.84 62.8094 19.1733 62.0094 19.84C61.236 20.5067 60.756 21.4533 60.5694 22.68H69.1294ZM86.5778 17.4C87.3778 16.1733 88.3778 15.2133 89.5778 14.52C90.7778 13.8 92.1111 13.44 93.5778 13.44V20.68H91.6978C89.9911 20.68 88.7111 21.0533 87.8578 21.8C87.0045 22.52 86.5778 23.8 86.5778 25.64V36H79.7378V13.68H86.5778V17.4ZM106.887 29.6L111.727 13.68H119.007L111.087 36H102.647L94.7272 13.68H102.047L106.887 29.6ZM125.326 11.36C124.126 11.36 123.14 11.0133 122.366 10.32C121.62 9.6 121.246 8.72 121.246 7.68C121.246 6.61333 121.62 5.73333 122.366 5.04C123.14 4.32 124.126 3.96 125.326 3.96C126.5 3.96 127.46 4.32 128.206 5.04C128.98 5.73333 129.366 6.61333 129.366 7.68C129.366 8.72 128.98 9.6 128.206 10.32C127.46 11.0133 126.5 11.36 125.326 11.36ZM128.726 13.68V36H121.886V13.68H128.726ZM132.323 24.84C132.323 22.52 132.79 20.4933 133.723 18.76C134.683 17.0267 136.003 15.6933 137.683 14.76C139.39 13.8267 141.336 13.36 143.523 13.36C146.323 13.36 148.656 14.0933 150.523 15.56C152.416 17.0267 153.656 19.0933 154.243 21.76H146.963C146.35 20.0533 145.163 19.2 143.403 19.2C142.15 19.2 141.15 19.6933 140.403 20.68C139.656 21.64 139.283 23.0267 139.283 24.84C139.283 26.6533 139.656 28.0533 140.403 29.04C141.15 30 142.15 30.48 143.403 30.48C145.163 30.48 146.35 29.6267 146.963 27.92H154.243C153.656 30.5333 152.416 32.5867 150.523 34.08C148.63 35.5733 146.296 36.32 143.523 36.32C141.336 36.32 139.39 35.8533 137.683 34.92C136.003 33.9867 134.683 32.6533 133.723 30.92C132.79 29.1867 132.323 27.16 132.323 24.84ZM178.942 24.48C178.942 25.12 178.902 25.7867 178.822 26.48H163.342C163.449 27.8667 163.889 28.9333 164.662 29.68C165.462 30.4 166.435 30.76 167.582 30.76C169.289 30.76 170.475 30.04 171.142 28.6H178.422C178.049 30.0667 177.369 31.3867 176.382 32.56C175.422 33.7333 174.209 34.6533 172.742 35.32C171.275 35.9867 169.635 36.32 167.822 36.32C165.635 36.32 163.689 35.8533 161.982 34.92C160.275 33.9867 158.942 32.6533 157.982 30.92C157.022 29.1867 156.542 27.16 156.542 24.84C156.542 22.52 157.009 20.4933 157.942 18.76C158.902 17.0267 160.235 15.6933 161.942 14.76C163.649 13.8267 165.609 13.36 167.822 13.36C169.982 13.36 171.902 13.8133 173.582 14.72C175.262 15.6267 176.569 16.92 177.502 18.6C178.462 20.28 178.942 22.24 178.942 24.48ZM171.942 22.68C171.942 21.5067 171.542 20.5733 170.742 19.88C169.942 19.1867 168.942 18.84 167.742 18.84C166.595 18.84 165.622 19.1733 164.822 19.84C164.049 20.5067 163.569 21.4533 163.382 22.68H171.942ZM191.63 36.32C189.684 36.32 187.95 35.9867 186.43 35.32C184.91 34.6533 183.71 33.7467 182.83 32.6C181.95 31.4267 181.457 30.12 181.35 28.68H188.11C188.19 29.4533 188.55 30.08 189.19 30.56C189.83 31.04 190.617 31.28 191.55 31.28C192.404 31.28 193.057 31.12 193.51 30.8C193.99 30.4533 194.23 30.0133 194.23 29.48C194.23 28.84 193.897 28.3733 193.23 28.08C192.564 27.76 191.484 27.4133 189.99 27.04C188.39 26.6667 187.057 26.28 185.99 25.88C184.924 25.4533 184.004 24.8 183.23 23.92C182.457 23.0133 182.07 21.8 182.07 20.28C182.07 19 182.417 17.84 183.11 16.8C183.83 15.7333 184.87 14.8933 186.23 14.28C187.617 13.6667 189.257 13.36 191.15 13.36C193.95 13.36 196.15 14.0533 197.75 15.44C199.377 16.8267 200.31 18.6667 200.55 20.96H194.23C194.124 20.1867 193.777 19.5733 193.19 19.12C192.63 18.6667 191.884 18.44 190.95 18.44C190.15 18.44 189.537 18.6 189.11 18.92C188.684 19.2133 188.47 19.6267 188.47 20.16C188.47 20.8 188.804 21.28 189.47 21.6C190.164 21.92 191.23 22.24 192.67 22.56C194.324 22.9867 195.67 23.4133 196.71 23.84C197.75 24.24 198.657 24.9067 199.43 25.84C200.23 26.7467 200.644 27.9733 200.67 29.52C200.67 30.8267 200.297 32 199.55 33.04C198.83 34.0533 197.777 34.8533 196.39 35.44C195.03 36.0267 193.444 36.32 191.63 36.32Z" fill="white"/>
<path d="M35.12 35.28L33.9823 38.0559L35.12 35.28ZM31.2 32.32L28.7824 34.0962L28.794 34.1121L28.8059 34.1278L31.2 32.32ZM29.68 27.6V24.6H26.5918L26.6813 27.6869L29.68 27.6ZM36.96 27.6L39.9443 27.2939L39.668 24.6H36.96V27.6ZM38.04 30L36.0172 32.2155L36.044 32.24L36.0715 32.2638L38.04 30ZM42.84 30.12L44.6743 32.4939L44.7074 32.4683L44.7397 32.4419L42.84 30.12ZM43 26.44L40.8787 28.5613L40.909 28.5916L40.9401 28.621L43 26.44ZM41.28 25.32L40.0718 28.0659L40.0914 28.0746L40.1111 28.0829L41.28 25.32ZM38.4 24.32L37.5148 27.1864L37.5292 27.1909L37.5436 27.1952L38.4 24.32ZM33.96 22.64L32.6435 25.3357L33.96 22.64ZM31 20.16L33.393 18.3507L33.393 18.3507L31 20.16ZM32.6 9.76L34.4372 12.1316L34.4476 12.1236L34.4579 12.1155L32.6 9.76ZM47.48 9.76L45.6221 12.1155L45.6324 12.1236L45.6428 12.1316L47.48 9.76ZM50.52 15.92V18.92H53.6753L53.5162 15.7687L50.52 15.92ZM43.12 15.92L40.1252 16.0962L40.2913 18.92H43.12V15.92ZM42.12 13.8L40.1515 16.0638L40.1801 16.0887L40.2094 16.1129L42.12 13.8ZM37.76 13.68L39.6924 15.9747L39.7268 15.9457L39.7604 15.9157L37.76 13.68ZM38.28 17.68L39.8116 15.1004L39.8116 15.1004L38.28 17.68ZM42.28 19.32L43.2412 16.4782L43.2224 16.4718L43.2035 16.4657L42.28 19.32ZM46.68 21.08L45.3384 23.7633L45.3509 23.7696L45.3635 23.7757L46.68 21.08ZM49.64 23.52L47.2688 25.3577L47.2688 25.3577L49.64 23.52ZM49.64 32L47.1048 30.3961L47.093 30.4147L47.0814 30.4335L49.64 32ZM46.12 35.12L44.7784 32.4367L46.12 35.12ZM40.64 33.28C38.9122 33.28 37.468 33.0001 36.2577 32.5041L33.9823 38.0559C36.0254 38.8932 38.2611 39.28 40.64 39.28V33.28ZM36.2577 32.5041C35.0911 32.026 34.2325 31.3576 33.5941 30.5122L28.8059 34.1278C30.1408 35.8957 31.8956 37.2007 33.9823 38.0559L36.2577 32.5041ZM33.6176 30.5438C33.0659 29.7927 32.7169 28.8294 32.6787 27.5131L26.6813 27.6869C26.7498 30.0506 27.4141 32.2339 28.7824 34.0962L33.6176 30.5438ZM29.68 30.6H36.96V24.6H29.68V30.6ZM33.9757 27.9061C34.1373 29.4825 34.7297 31.0399 36.0172 32.2155L40.0628 27.7845C40.0753 27.796 40.0674 27.797 40.0458 27.7489C40.0201 27.6919 39.971 27.5538 39.9443 27.2939L33.9757 27.9061ZM36.0715 32.2638C37.3415 33.3682 38.8915 33.8 40.44 33.8V27.8C40.2156 27.8 40.0958 27.7697 40.0487 27.754C40.0252 27.7461 40.0147 27.7403 40.0128 27.7392C40.0111 27.7383 40.0105 27.7379 40.0085 27.7362L36.0715 32.2638ZM40.44 33.8C41.8767 33.8 43.3994 33.4791 44.6743 32.4939L41.0057 27.7461C41.1073 27.6676 41.03 27.8 40.44 27.8V33.8ZM44.7397 32.4419C46.0916 31.3358 46.72 29.7936 46.72 28.16H40.72C40.72 28.2148 40.7116 28.1562 40.7632 28.0412C40.7877 27.9866 40.8194 27.934 40.8554 27.8876C40.891 27.8418 40.9226 27.8126 40.9403 27.7981L44.7397 32.4419ZM46.72 28.16C46.72 26.6877 46.1729 25.3102 45.0599 24.259L40.9401 28.621C40.8948 28.5782 40.8244 28.492 40.7727 28.3684C40.7489 28.3116 40.735 28.2607 40.7274 28.221C40.7238 28.2017 40.7219 28.1864 40.7209 28.1759C40.72 28.1654 40.72 28.1599 40.72 28.16H46.72ZM45.1213 24.3187C44.3516 23.5489 43.4371 22.9752 42.4489 22.5571L40.1111 28.0829C40.5096 28.2515 40.7418 28.4244 40.8787 28.5613L45.1213 24.3187ZM42.4882 22.5741C41.6511 22.2057 40.5515 21.8306 39.2564 21.4448L37.5436 27.1952C38.7552 27.5561 39.5756 27.8476 40.0718 28.0659L42.4882 22.5741ZM39.2852 21.4536C37.5559 20.9195 36.2346 20.4122 35.2765 19.9443L32.6435 25.3357C33.9787 25.9878 35.6174 26.6005 37.5148 27.1864L39.2852 21.4536ZM35.2765 19.9443C34.5843 19.6062 33.957 19.0966 33.393 18.3507L28.607 21.9693C29.6964 23.4101 31.0424 24.5538 32.6435 25.3357L35.2765 19.9443ZM33.393 18.3507C33.0597 17.9099 32.76 17.1737 32.76 15.88H26.76C26.76 18.1063 27.287 20.2235 28.607 21.9693L33.393 18.3507ZM32.76 15.88C32.76 14.0972 33.351 12.9731 34.4372 12.1316L30.7628 7.38835C28.0623 9.48026 26.76 12.4361 26.76 15.88H32.76ZM34.4579 12.1155C35.6967 11.1384 37.4551 10.52 40 10.52V4.52C36.4649 4.52 33.29 5.39494 30.7421 7.4045L34.4579 12.1155ZM40 10.52C42.6123 10.52 44.392 11.1452 45.6221 12.1155L49.3379 7.4045C46.7813 5.38809 43.5744 4.52 40 4.52V10.52ZM45.6428 12.1316C46.7677 13.0031 47.4295 14.203 47.5238 16.0713L53.5162 15.7687C53.3439 12.357 51.979 9.45028 49.3172 7.38835L45.6428 12.1316ZM50.52 12.92H43.12V18.92H50.52V12.92ZM46.1148 15.7438C46.0202 14.1348 45.3801 12.6019 44.0306 11.4871L40.2094 16.1129C40.2003 16.1054 40.1825 16.0889 40.1622 16.0629C40.1419 16.0368 40.1266 16.0109 40.1167 15.9899C40.1071 15.9694 40.1068 15.9628 40.1101 15.9767C40.1136 15.9913 40.1212 16.0294 40.1252 16.0962L46.1148 15.7438ZM44.0885 11.5362C42.8334 10.4447 41.3054 10 39.76 10V16C39.9625 16 40.0678 16.028 40.1069 16.0412C40.139 16.0521 40.1457 16.0588 40.1515 16.0638L44.0885 11.5362ZM39.76 10C38.3623 10 36.9293 10.3977 35.7596 11.4443L39.7604 15.9157C39.7348 15.9386 39.7053 15.9601 39.6743 15.9781C39.6435 15.9959 39.619 16.0058 39.6057 16.0103C39.5793 16.0193 39.6193 16 39.76 16V10ZM35.8276 11.3853C34.4806 12.5196 34 14.087 34 15.56H40C40 15.4485 40.0174 15.4804 39.9713 15.5944C39.948 15.6521 39.9121 15.7211 39.8603 15.7928C39.8084 15.8648 39.7503 15.926 39.6924 15.9747L35.8276 11.3853ZM34 15.56C34 17.641 35.0887 19.2741 36.7484 20.2596L39.8116 15.1004C39.7245 15.0487 39.7992 15.072 39.8882 15.2194C39.9305 15.2895 39.9615 15.3645 39.9803 15.4355C39.9986 15.5047 40 15.55 40 15.56H34ZM36.7484 20.2596C37.8964 20.9412 39.4872 21.5695 41.3565 22.1743L43.2035 16.4657C41.4462 15.8971 40.3703 15.4322 39.8116 15.1004L36.7484 20.2596ZM41.3188 22.1618C43.0622 22.7515 44.3876 23.2879 45.3384 23.7633L48.0216 18.3967C46.7324 17.7521 45.1245 17.1151 43.2412 16.4782L41.3188 22.1618ZM45.3635 23.7757C46.0739 24.1226 46.7068 24.6326 47.2688 25.3577L52.0112 21.6823C50.9199 20.2741 49.5794 19.1574 47.9965 18.3843L45.3635 23.7757ZM47.2688 25.3577C47.5965 25.7806 47.88 26.4591 47.88 27.64H53.88C53.88 25.4609 53.3368 23.3927 52.0112 21.6823L47.2688 25.3577ZM47.88 27.64C47.88 28.693 47.6169 29.5866 47.1048 30.3961L52.1752 33.6039C53.3164 31.8001 53.88 29.787 53.88 27.64H47.88ZM47.0814 30.4335C46.6111 31.2019 45.8892 31.8813 44.7784 32.4367L47.4616 37.8033C49.4441 36.812 51.069 35.4115 52.1986 33.5665L47.0814 30.4335ZM44.7784 32.4367C43.7294 32.9612 42.3811 33.28 40.64 33.28V39.28C43.1123 39.28 45.4172 38.8255 47.4616 37.8033L44.7784 32.4367ZM76.0094 26.48V29.48H78.6831L78.9896 26.8239L76.0094 26.48ZM60.5294 26.48V23.48H57.2897L57.5382 26.7101L60.5294 26.48ZM61.8494 29.68L59.7656 31.8382L59.8034 31.8747L59.8425 31.9099L61.8494 29.68ZM68.3294 28.6V25.6H66.4124L65.607 27.3396L68.3294 28.6ZM75.6094 28.6L78.5167 29.34L79.4687 25.6H75.6094V28.6ZM73.5694 32.56L71.2733 30.6292L71.2603 30.6447L71.2475 30.6603L73.5694 32.56ZM69.9294 35.32L71.1708 38.0511L69.9294 35.32ZM59.1694 34.92L57.7299 37.5521L59.1694 34.92ZM55.1694 30.92L57.7937 29.4665V29.4665L55.1694 30.92ZM55.1294 18.76L52.505 17.3065L52.4964 17.322L52.488 17.3377L55.1294 18.76ZM59.1294 14.76L60.5688 17.3921L59.1294 14.76ZM70.7694 14.72L69.3446 17.3601V17.3601L70.7694 14.72ZM74.6894 18.6L72.0669 20.0569L72.0757 20.0727L72.0846 20.0884L74.6894 18.6ZM69.1294 22.68V25.68H72.1294V22.68H69.1294ZM67.9294 19.88L69.8942 17.6129L69.8942 17.6129L67.9294 19.88ZM62.0094 19.84L60.0888 17.5353L60.0696 17.5514L60.0506 17.5678L62.0094 19.84ZM60.5694 22.68L57.6035 22.2287L57.0783 25.68H60.5694V22.68ZM73.1294 24.48C73.1294 24.9953 73.0971 25.5468 73.0291 26.1361L78.9896 26.8239C79.0816 26.0265 79.1294 25.2447 79.1294 24.48H73.1294ZM76.0094 23.48H60.5294V29.48H76.0094V23.48ZM57.5382 26.7101C57.6842 28.6082 58.324 30.4463 59.7656 31.8382L63.9332 27.5218C63.8281 27.4203 63.5879 27.1251 63.5205 26.2499L57.5382 26.7101ZM59.8425 31.9099C61.2314 33.1599 62.9345 33.76 64.7694 33.76V27.76C64.311 27.76 64.0673 27.6401 63.8563 27.4501L59.8425 31.9099ZM64.7694 33.76C66.0458 33.76 67.3361 33.4883 68.4956 32.7848C69.669 32.0728 70.5049 31.0415 71.0518 29.8604L65.607 27.3396C65.4871 27.5985 65.3964 27.6472 65.3832 27.6552C65.356 27.6717 65.1996 27.76 64.7694 27.76V33.76ZM68.3294 31.6H75.6094V25.6H68.3294V31.6ZM72.7021 27.86C72.4417 28.8829 71.973 29.7971 71.2733 30.6292L75.8655 34.4908C77.139 32.9763 78.0304 31.2504 78.5167 29.34L72.7021 27.86ZM71.2475 30.6603C70.5972 31.455 69.7624 32.1005 68.688 32.5889L71.1708 38.0511C73.0297 37.2061 74.6215 36.0116 75.8912 34.4597L71.2475 30.6603ZM68.688 32.5889C67.6574 33.0573 66.4484 33.32 65.0094 33.32V39.32C67.1971 39.32 69.268 38.916 71.1708 38.0511L68.688 32.5889ZM65.0094 33.32C63.2623 33.32 61.8216 32.9511 60.6088 32.2879L57.7299 37.5521C59.9305 38.7555 62.3831 39.32 65.0094 39.32V33.32ZM60.6088 32.2879C59.4105 31.6326 58.4838 30.7124 57.7937 29.4665L52.545 32.3735C53.7749 34.5942 55.5149 36.3408 57.7299 37.5521L60.6088 32.2879ZM57.7937 29.4665C57.1192 28.2486 56.7294 26.7388 56.7294 24.84H50.7294C50.7294 27.5812 51.2995 30.1247 52.545 32.3735L57.7937 29.4665ZM56.7294 24.84C56.7294 22.9278 57.1116 21.4066 57.7708 20.1823L52.488 17.3377C51.2805 19.5801 50.7294 22.1122 50.7294 24.84H56.7294ZM57.7537 20.2135C58.4438 18.9676 59.3705 18.0474 60.5688 17.3921L57.6899 12.1279C55.4749 13.3392 53.7349 15.0858 52.505 17.3065L57.7537 20.2135ZM60.5688 17.3921C61.7763 16.7317 63.2289 16.36 65.0094 16.36V10.36C62.3632 10.36 59.8957 10.9216 57.6899 12.1279L60.5688 17.3921ZM65.0094 16.36C66.7382 16.36 68.1571 16.7192 69.3446 17.3601L72.1942 12.0799C70.0216 10.9074 67.6006 10.36 65.0094 10.36V16.36ZM69.3446 17.3601C70.517 17.9928 71.4097 18.874 72.0669 20.0569L77.3118 17.1431C76.1024 14.966 74.3817 13.2605 72.1942 12.0799L69.3446 17.3601ZM72.0846 20.0884C72.7472 21.248 73.1294 22.6789 73.1294 24.48H79.1294C79.1294 21.8011 78.5515 19.312 77.2941 17.1116L72.0846 20.0884ZM72.1294 22.68C72.1294 20.7424 71.4276 18.9419 69.8942 17.6129L65.9646 22.1471C66.0367 22.2096 66.0583 22.25 66.0719 22.2818C66.0889 22.3214 66.1294 22.437 66.1294 22.68H72.1294ZM69.8942 17.6129C68.4758 16.3837 66.7484 15.84 64.9294 15.84V21.84C65.5104 21.84 65.783 21.9897 65.9646 22.1471L69.8942 17.6129ZM64.9294 15.84C63.1568 15.84 61.4835 16.3731 60.0888 17.5353L63.9299 22.1447C64.1352 21.9736 64.4086 21.84 64.9294 21.84V15.84ZM60.0506 17.5678C58.6247 18.7969 57.8737 20.4531 57.6035 22.2287L63.5352 23.1313C63.6384 22.4536 63.8474 22.2164 63.9682 22.1122L60.0506 17.5678ZM60.5694 25.68H69.1294V19.68H60.5694V25.68ZM86.5778 17.4H83.5778V27.4918L89.0906 19.0388L86.5778 17.4ZM89.5778 14.52L91.0786 17.1176L91.1001 17.1052L91.1213 17.0925L89.5778 14.52ZM93.5778 13.44H96.5778V10.44H93.5778V13.44ZM93.5778 20.68V23.68H96.5778V20.68H93.5778ZM87.8578 21.8L89.7924 24.0929L89.813 24.0755L89.8333 24.0577L87.8578 21.8ZM86.5778 36V39H89.5778V36H86.5778ZM79.7378 36H76.7378V39H79.7378V36ZM79.7378 13.68V10.68H76.7378V13.68H79.7378ZM86.5778 13.68H89.5778V10.68H86.5778V13.68ZM89.0906 19.0388C89.6483 18.1838 90.3097 17.5619 91.0786 17.1176L88.077 11.9224C86.4459 12.8648 85.1073 14.1629 84.065 15.7612L89.0906 19.0388ZM91.1213 17.0925C91.8322 16.6659 92.6276 16.44 93.5778 16.44V10.44C91.5947 10.44 89.7234 10.9341 88.0343 11.9475L91.1213 17.0925ZM90.5778 13.44V20.68H96.5778V13.44H90.5778ZM93.5778 17.68H91.6978V23.68H93.5778V17.68ZM91.6978 17.68C89.6198 17.68 87.501 18.1259 85.8823 19.5423L89.8333 24.0577C89.9213 23.9808 90.3625 23.68 91.6978 23.68V17.68ZM85.9232 19.5071C84.0599 21.0793 83.5778 23.4752 83.5778 25.64H89.5778C89.5778 24.9335 89.662 24.4942 89.7439 24.2487C89.8193 24.0225 89.8677 24.0294 89.7924 24.0929L85.9232 19.5071ZM83.5778 25.64V36H89.5778V25.64H83.5778ZM86.5778 33H79.7378V39H86.5778V33ZM82.7378 36V13.68H76.7378V36H82.7378ZM79.7378 16.68H86.5778V10.68H79.7378V16.68ZM83.5778 13.68V17.4H89.5778V13.68H83.5778ZM106.887 29.6L104.017 30.4726L106.887 39.9137L109.757 30.4726L106.887 29.6ZM111.727 13.68V10.68H109.504L108.857 12.8074L111.727 13.68ZM119.007 13.68L121.834 14.6832L123.255 10.68H119.007V13.68ZM111.087 36V39H113.206L113.914 37.0032L111.087 36ZM102.647 36L99.8199 37.0032L100.528 39H102.647V36ZM94.7272 13.68V10.68H90.4794L91.8999 14.6832L94.7272 13.68ZM102.047 13.68L104.917 12.8074L104.271 10.68H102.047V13.68ZM109.757 30.4726L114.597 14.5526L108.857 12.8074L104.017 28.7274L109.757 30.4726ZM111.727 16.68H119.007V10.68H111.727V16.68ZM116.18 12.6768L108.26 34.9968L113.914 37.0032L121.834 14.6832L116.18 12.6768ZM111.087 33H102.647V39H111.087V33ZM105.474 34.9968L97.5545 12.6768L91.8999 14.6832L99.8199 37.0032L105.474 34.9968ZM94.7272 16.68H102.047V10.68H94.7272V16.68ZM99.1769 14.5526L104.017 30.4726L109.757 28.7274L104.917 12.8074L99.1769 14.5526ZM122.366 10.32L120.284 12.4795L120.323 12.5173L120.364 12.5537L122.366 10.32ZM122.366 5.04L124.408 7.23838L124.411 7.23568L122.366 5.04ZM128.206 5.04L126.124 7.19953L126.163 7.23734L126.204 7.27371L128.206 5.04ZM128.206 10.32L130.248 12.5184L130.251 12.5157L128.206 10.32ZM128.726 13.68H131.726V10.68H128.726V13.68ZM128.726 36V39H131.726V36H128.726ZM121.886 36H118.886V39H121.886V36ZM121.886 13.68V10.68H118.886V13.68H121.886ZM125.326 8.36C124.743 8.36 124.507 8.21022 124.369 8.08629L120.364 12.5537C121.772 13.8164 123.509 14.36 125.326 14.36V8.36ZM124.449 8.16047C124.29 8.00757 124.246 7.90787 124.246 7.68H118.246C118.246 9.53213 118.949 11.1924 120.284 12.4795L124.449 8.16047ZM124.246 7.68C124.246 7.50255 124.276 7.42035 124.288 7.39165C124.299 7.3661 124.323 7.31667 124.408 7.23838L120.325 2.84162C118.935 4.13188 118.246 5.82318 118.246 7.68H124.246ZM124.411 7.23568C124.552 7.10348 124.774 6.96 125.326 6.96V0.959998C123.478 0.959998 121.727 1.53651 120.322 2.84432L124.411 7.23568ZM125.326 6.96C125.833 6.96 126.011 7.09079 126.124 7.19953L130.289 2.88047C128.908 1.54921 127.166 0.959998 125.326 0.959998V6.96ZM126.204 7.27371C126.298 7.3583 126.322 7.40897 126.33 7.42682C126.338 7.44663 126.366 7.51635 126.366 7.68H132.366C132.366 5.7871 131.636 4.08595 130.209 2.80629L126.204 7.27371ZM126.366 7.68C126.366 7.87218 126.337 7.96152 126.162 8.12432L130.251 12.5157C131.622 11.2385 132.366 9.56782 132.366 7.68H126.366ZM126.165 8.12162C126.057 8.22169 125.865 8.36 125.326 8.36V14.36C127.134 14.36 128.862 13.805 130.248 12.5184L126.165 8.12162ZM125.726 13.68V36H131.726V13.68H125.726ZM128.726 33H121.886V39H128.726V33ZM124.886 36V13.68H118.886V36H124.886ZM121.886 16.68H128.726V10.68H121.886V16.68ZM133.723 18.76L131.099 17.3065L131.09 17.322L131.082 17.3377L133.723 18.76ZM137.683 14.76L136.244 12.1279L136.235 12.1327L136.226 12.1375L137.683 14.76ZM150.523 15.56L148.67 17.919L148.678 17.9253L148.686 17.9316L150.523 15.56ZM154.243 21.76V24.76H157.975L157.173 21.1154L154.243 21.76ZM146.963 21.76L144.14 22.7746L144.853 24.76H146.963V21.76ZM140.403 20.68L142.771 22.5218L142.783 22.5062L142.795 22.4903L140.403 20.68ZM140.403 29.04L138.011 30.8503L138.023 30.8662L138.035 30.8818L140.403 29.04ZM146.963 27.92V24.92H144.853L144.14 26.9054L146.963 27.92ZM154.243 27.92L157.17 28.5771L157.991 24.92H154.243V27.92ZM150.523 34.08L148.665 31.7245L150.523 34.08ZM137.683 34.92L136.226 37.5425L136.235 37.5473L136.244 37.5521L137.683 34.92ZM133.723 30.92L131.082 32.3423L131.09 32.358L131.099 32.3735L133.723 30.92ZM135.323 24.84C135.323 22.9278 135.705 21.4066 136.365 20.1823L131.082 17.3377C129.874 19.5801 129.323 22.1122 129.323 24.84H135.323ZM136.347 20.2135C137.044 18.9554 137.967 18.0343 139.14 17.3825L136.226 12.1375C134.04 13.3523 132.322 15.098 131.099 17.3065L136.347 20.2135ZM139.123 17.3921C140.335 16.7289 141.776 16.36 143.523 16.36V10.36C140.897 10.36 138.444 10.9245 136.244 12.1279L139.123 17.3921ZM143.523 16.36C145.776 16.36 147.422 16.939 148.67 17.919L152.377 13.201C149.891 11.2477 146.87 10.36 143.523 10.36V16.36ZM148.686 17.9316C149.947 18.9085 150.855 20.322 151.313 22.4046L157.173 21.1154C156.458 17.8646 154.886 15.1448 152.36 13.1883L148.686 17.9316ZM154.243 18.76H146.963V24.76H154.243V18.76ZM149.786 20.7454C149.324 19.4594 148.558 18.2626 147.365 17.4044C146.164 16.5409 144.78 16.2 143.403 16.2V22.2C143.601 22.2 143.721 22.224 143.781 22.2416C143.837 22.2578 143.856 22.2719 143.862 22.2756C143.867 22.2798 143.896 22.3004 143.942 22.3655C143.99 22.4346 144.063 22.5613 144.14 22.7746L149.786 20.7454ZM143.403 16.2C141.224 16.2 139.333 17.1223 138.011 18.8697L142.795 22.4903C142.918 22.3279 143.003 22.2788 143.04 22.2604C143.079 22.2414 143.179 22.2 143.403 22.2V16.2ZM138.035 18.8382C136.721 20.5278 136.283 22.673 136.283 24.84H142.283C142.283 23.3804 142.592 22.7522 142.771 22.5218L138.035 18.8382ZM136.283 24.84C136.283 27.0148 136.724 29.1498 138.011 30.8503L142.795 27.2297C142.589 26.9569 142.283 26.2919 142.283 24.84H136.283ZM138.035 30.8818C139.37 32.5982 141.257 33.48 143.403 33.48V27.48C143.043 27.48 142.93 27.4018 142.771 27.1982L138.035 30.8818ZM143.403 33.48C144.78 33.48 146.164 33.1391 147.365 32.2756C148.558 31.4174 149.324 30.2206 149.786 28.9346L144.14 26.9054C144.063 27.1187 143.99 27.2454 143.942 27.3145C143.896 27.3796 143.867 27.4002 143.862 27.4044C143.856 27.4081 143.837 27.4222 143.781 27.4384C143.721 27.456 143.601 27.48 143.403 27.48V33.48ZM146.963 30.92H154.243V24.92H146.963V30.92ZM151.316 27.2629C150.862 29.2832 149.957 30.7054 148.665 31.7245L152.381 36.4355C154.876 34.4679 156.45 31.7834 157.17 28.5771L151.316 27.2629ZM148.665 31.7245C147.379 32.7391 145.728 33.32 143.523 33.32V39.32C146.864 39.32 149.881 38.4076 152.381 36.4355L148.665 31.7245ZM143.523 33.32C141.776 33.32 140.335 32.9511 139.123 32.2879L136.244 37.5521C138.444 38.7555 140.897 39.32 143.523 39.32V33.32ZM139.14 32.2975C137.967 31.6457 137.044 30.7246 136.347 29.4665L131.099 32.3735C132.322 34.582 134.04 36.3277 136.226 37.5425L139.14 32.2975ZM136.365 29.4977C135.705 28.2734 135.323 26.7522 135.323 24.84H129.323C129.323 27.5678 129.874 30.0999 131.082 32.3423L136.365 29.4977ZM178.822 26.48V29.48H181.496L181.802 26.8239L178.822 26.48ZM163.342 26.48V23.48H160.102L160.351 26.7101L163.342 26.48ZM164.662 29.68L162.578 31.8382L162.616 31.8747L162.655 31.9099L164.662 29.68ZM171.142 28.6V25.6H169.225L168.419 27.3396L171.142 28.6ZM178.422 28.6L181.329 29.34L182.281 25.6H178.422V28.6ZM176.382 32.56L174.086 30.6292L174.073 30.6447L174.06 30.6603L176.382 32.56ZM172.742 35.32L173.983 38.0511L172.742 35.32ZM161.982 34.92L160.542 37.5521L161.982 34.92ZM157.982 30.92L160.606 29.4665V29.4665L157.982 30.92ZM157.942 18.76L155.318 17.3065L155.309 17.322L155.3 17.3377L157.942 18.76ZM161.942 14.76L163.381 17.3921L161.942 14.76ZM173.582 14.72L172.157 17.3601V17.3601L173.582 14.72ZM177.502 18.6L174.879 20.0569L174.888 20.0727L174.897 20.0884L177.502 18.6ZM171.942 22.68V25.68H174.942V22.68H171.942ZM170.742 19.88L172.707 17.6129V17.6129L170.742 19.88ZM164.822 19.84L162.901 17.5353L162.882 17.5514L162.863 17.5678L164.822 19.84ZM163.382 22.68L160.416 22.2287L159.891 25.68H163.382V22.68ZM175.942 24.48C175.942 24.9953 175.91 25.5468 175.842 26.1361L181.802 26.8239C181.894 26.0265 181.942 25.2447 181.942 24.48H175.942ZM178.822 23.48H163.342V29.48H178.822V23.48ZM160.351 26.7101C160.497 28.6082 161.137 30.4463 162.578 31.8382L166.746 27.5218C166.641 27.4203 166.4 27.1251 166.333 26.2499L160.351 26.7101ZM162.655 31.9099C164.044 33.1599 165.747 33.76 167.582 33.76V27.76C167.123 27.76 166.88 27.6401 166.669 27.4501L162.655 31.9099ZM167.582 33.76C168.858 33.76 170.149 33.4883 171.308 32.7848C172.482 32.0728 173.317 31.0415 173.864 29.8604L168.419 27.3396C168.3 27.5985 168.209 27.6472 168.196 27.6552C168.168 27.6717 168.012 27.76 167.582 27.76V33.76ZM171.142 31.6H178.422V25.6H171.142V31.6ZM175.515 27.86C175.254 28.8829 174.786 29.7971 174.086 30.6292L178.678 34.4908C179.952 32.9763 180.843 31.2504 181.329 29.34L175.515 27.86ZM174.06 30.6603C173.41 31.455 172.575 32.1005 171.5 32.5889L173.983 38.0511C175.842 37.2061 177.434 36.0116 178.704 34.4597L174.06 30.6603ZM171.5 32.5889C170.47 33.0573 169.261 33.32 167.822 33.32V39.32C170.01 39.32 172.08 38.916 173.983 38.0511L171.5 32.5889ZM167.822 33.32C166.075 33.32 164.634 32.9511 163.421 32.2879L160.542 37.5521C162.743 38.7555 165.196 39.32 167.822 39.32V33.32ZM163.421 32.2879C162.223 31.6326 161.296 30.7124 160.606 29.4665L155.357 32.3735C156.587 34.5942 158.327 36.3408 160.542 37.5521L163.421 32.2879ZM160.606 29.4665C159.932 28.2486 159.542 26.7388 159.542 24.84H153.542C153.542 27.5812 154.112 30.1247 155.357 32.3735L160.606 29.4665ZM159.542 24.84C159.542 22.9278 159.924 21.4066 160.583 20.1823L155.3 17.3377C154.093 19.5801 153.542 22.1122 153.542 24.84H159.542ZM160.566 20.2135C161.256 18.9676 162.183 18.0474 163.381 17.3921L160.502 12.1279C158.287 13.3392 156.547 15.0858 155.318 17.3065L160.566 20.2135ZM163.381 17.3921C164.589 16.7317 166.041 16.36 167.822 16.36V10.36C165.176 10.36 162.708 10.9216 160.502 12.1279L163.381 17.3921ZM167.822 16.36C169.551 16.36 170.97 16.7192 172.157 17.3601L175.007 12.0799C172.834 10.9074 170.413 10.36 167.822 10.36V16.36ZM172.157 17.3601C173.33 17.9928 174.222 18.874 174.879 20.0569L180.124 17.1431C178.915 14.966 177.194 13.2605 175.007 12.0799L172.157 17.3601ZM174.897 20.0884C175.56 21.248 175.942 22.6789 175.942 24.48H181.942C181.942 21.8011 181.364 19.312 180.107 17.1116L174.897 20.0884ZM174.942 22.68C174.942 20.7424 174.24 18.9419 172.707 17.6129L168.777 22.1471C168.849 22.2096 168.871 22.25 168.884 22.2818C168.901 22.3214 168.942 22.437 168.942 22.68H174.942ZM172.707 17.6129C171.288 16.3837 169.561 15.84 167.742 15.84V21.84C168.323 21.84 168.595 21.9897 168.777 22.1471L172.707 17.6129ZM167.742 15.84C165.969 15.84 164.296 16.3731 162.901 17.5353L166.742 22.1447C166.948 21.9736 167.221 21.84 167.742 21.84V15.84ZM162.863 17.5678C161.437 18.7969 160.686 20.4531 160.416 22.2287L166.348 23.1313C166.451 22.4536 166.66 22.2164 166.781 22.1122L162.863 17.5678ZM163.382 25.68H171.942V19.68H163.382V25.68ZM186.43 35.32L187.635 32.5726L186.43 35.32ZM182.83 32.6L180.43 34.4L180.44 34.4133L180.45 34.4265L182.83 32.6ZM181.35 28.68V25.68H178.12L178.359 28.9016L181.35 28.68ZM188.11 28.68L191.094 28.3713L190.816 25.68H188.11V28.68ZM189.19 30.56L190.99 28.16L189.19 30.56ZM193.51 30.8L195.24 33.2509L195.254 33.2415L195.267 33.232L193.51 30.8ZM193.23 28.08L191.932 30.7846L191.977 30.806L192.022 30.8259L193.23 28.08ZM189.99 27.04L190.718 24.1296L190.695 24.1238L190.672 24.1185L189.99 27.04ZM185.99 25.88L184.876 28.6654L184.906 28.6775L184.937 28.689L185.99 25.88ZM183.23 23.92L180.948 25.8668L180.962 25.8837L180.977 25.9003L183.23 23.92ZM183.11 16.8L180.624 15.1216L180.619 15.1287L180.614 15.1359L183.11 16.8ZM186.23 14.28L185.017 11.5364L185.007 11.5408L184.997 11.5452L186.23 14.28ZM197.75 15.44L195.786 17.7071L195.795 17.7151L195.804 17.723L197.75 15.44ZM200.55 20.96V23.96H203.881L203.534 20.6478L200.55 20.96ZM194.23 20.96L191.258 21.3699L191.616 23.96H194.23V20.96ZM193.19 19.12L191.303 21.4517L191.329 21.4731L191.356 21.4939L193.19 19.12ZM189.11 18.92L190.81 21.3921L190.861 21.3571L190.91 21.32L189.11 18.92ZM189.47 21.6L188.172 24.3046L188.193 24.3144L188.213 24.3239L189.47 21.6ZM192.67 22.56L193.42 19.6552L193.371 19.6425L193.321 19.6314L192.67 22.56ZM196.71 23.84L195.572 26.6155L195.602 26.6281L195.633 26.64L196.71 23.84ZM199.43 25.84L197.12 27.7541L197.15 27.7899L197.181 27.8249L199.43 25.84ZM200.67 29.52H203.67V29.4941L203.67 29.4683L200.67 29.52ZM199.55 33.04L197.113 31.2904L197.109 31.2964L197.105 31.3024L199.55 33.04ZM196.39 35.44L195.221 32.6771L195.212 32.6812L195.202 32.6854L196.39 35.44ZM191.63 33.32C190.028 33.32 188.715 33.0464 187.635 32.5726L185.225 38.0674C187.185 38.9269 189.34 39.32 191.63 39.32V33.32ZM187.635 32.5726C186.509 32.0786 185.739 31.4631 185.21 30.7735L180.45 34.4265C181.681 36.0303 183.312 37.2281 185.225 38.0674L187.635 32.5726ZM185.23 30.8C184.689 30.0778 184.406 29.317 184.342 28.4584L178.359 28.9016C178.508 30.923 179.212 32.7756 180.43 34.4L185.23 30.8ZM181.35 31.68H188.11V25.68H181.35V31.68ZM185.126 28.9887C185.295 30.6206 186.103 31.9948 187.39 32.96L190.99 28.16C190.973 28.1473 190.976 28.1467 190.989 28.1612C191.002 28.1762 191.022 28.2013 191.042 28.2356C191.061 28.2701 191.076 28.3041 191.085 28.333C191.094 28.3614 191.095 28.376 191.094 28.3713L185.126 28.9887ZM187.39 32.96C188.633 33.8918 190.08 34.28 191.55 34.28V28.28C191.154 28.28 191.028 28.1882 190.99 28.16L187.39 32.96ZM191.55 34.28C192.712 34.28 194.075 34.0734 195.24 33.2509L191.78 28.3491C191.918 28.2519 192.004 28.237 191.967 28.2461C191.926 28.256 191.797 28.28 191.55 28.28V34.28ZM195.267 33.232C196.428 32.3934 197.23 31.0934 197.23 29.48H191.23C191.23 29.2779 191.281 29.0224 191.417 28.7734C191.547 28.5353 191.696 28.4097 191.754 28.368L195.267 33.232ZM197.23 29.48C197.23 28.6105 196.993 27.7068 196.422 26.9063C195.867 26.1305 195.134 25.6401 194.439 25.3341L192.022 30.8259C191.993 30.8132 191.76 30.7029 191.539 30.3937C191.301 30.0599 191.23 29.7095 191.23 29.48H197.23ZM194.529 25.3754C193.573 24.9166 192.244 24.5112 190.718 24.1296L189.263 29.9504C190.723 30.3154 191.555 30.6034 191.932 30.7846L194.529 25.3754ZM190.672 24.1185C189.148 23.7629 187.949 23.4105 187.044 23.071L184.937 28.689C186.165 29.1495 187.632 29.5704 189.309 29.9615L190.672 24.1185ZM187.104 23.0946C186.484 22.8466 185.952 22.4727 185.484 21.9397L180.977 25.9003C182.055 27.1273 183.363 28.0601 184.876 28.6654L187.104 23.0946ZM185.513 21.9732C185.318 21.7453 185.07 21.2879 185.07 20.28H179.07C179.07 22.3121 179.596 24.2814 180.948 25.8668L185.513 21.9732ZM185.07 20.28C185.07 19.5771 185.25 18.9989 185.606 18.4641L180.614 15.1359C179.584 16.6811 179.07 18.4229 179.07 20.28H185.07ZM185.597 18.4784C185.958 17.9429 186.529 17.4363 187.464 17.0148L184.997 11.5452C183.212 12.3504 181.702 13.5238 180.624 15.1216L185.597 18.4784ZM187.444 17.0236C188.366 16.6158 189.574 16.36 191.15 16.36V10.36C188.94 10.36 186.868 10.7175 185.017 11.5364L187.444 17.0236ZM191.15 16.36C193.465 16.36 194.886 16.9277 195.786 17.7071L199.715 13.1729C197.414 11.179 194.436 10.36 191.15 10.36V16.36ZM195.804 17.723C196.796 18.5687 197.4 19.6785 197.567 21.2722L203.534 20.6478C203.221 17.6548 201.958 15.0846 199.697 13.157L195.804 17.723ZM200.55 17.96H194.23V23.96H200.55V17.96ZM197.202 20.5501C196.994 19.0441 196.269 17.7074 195.025 16.7461L191.356 21.4939C191.356 21.4939 191.345 21.4849 191.328 21.4655C191.31 21.4458 191.293 21.422 191.279 21.3962C191.264 21.3706 191.257 21.351 191.254 21.3422C191.251 21.334 191.255 21.3416 191.258 21.3699L197.202 20.5501ZM195.078 16.7883C193.843 15.7889 192.365 15.44 190.95 15.44V21.44C191.178 21.44 191.297 21.468 191.339 21.4806C191.373 21.491 191.348 21.4881 191.303 21.4517L195.078 16.7883ZM190.95 15.44C189.81 15.44 188.458 15.6591 187.31 16.52L190.91 21.32C190.759 21.4334 190.648 21.4627 190.648 21.4629C190.648 21.4629 190.671 21.4568 190.723 21.451C190.775 21.4451 190.849 21.44 190.95 21.44V15.44ZM187.411 16.4479C186.141 17.3207 185.47 18.6742 185.47 20.16H191.47C191.47 20.3015 191.439 20.5486 191.296 20.8259C191.151 21.1067 190.957 21.2909 190.81 21.3921L187.411 16.4479ZM185.47 20.16C185.47 21.0307 185.707 21.9209 186.256 22.7112C186.788 23.4765 187.493 23.9785 188.172 24.3046L190.769 18.8954C190.781 18.9015 190.986 19.0035 191.184 19.2888C191.4 19.5991 191.47 19.9293 191.47 20.16H185.47ZM188.213 24.3239C189.205 24.7819 190.526 25.1566 192.02 25.4886L193.321 19.6314C191.935 19.3234 191.122 19.0581 190.727 18.8761L188.213 24.3239ZM191.921 25.4648C193.502 25.8729 194.705 26.26 195.572 26.6155L197.849 21.0645C196.635 20.5666 195.145 20.1004 193.42 19.6552L191.921 25.4648ZM195.633 26.64C196.152 26.8394 196.646 27.1812 197.12 27.7541L201.74 23.9259C200.668 22.6322 199.349 21.6406 197.787 21.04L195.633 26.64ZM197.181 27.8249C197.39 28.0615 197.653 28.5342 197.671 29.5717L203.67 29.4683C203.634 27.4125 203.071 25.4318 201.68 23.8551L197.181 27.8249ZM197.67 29.52C197.67 30.2128 197.486 30.7715 197.113 31.2904L201.987 34.7896C203.108 33.2285 203.67 31.4406 203.67 29.52H197.67ZM197.105 31.3024C196.769 31.7748 196.204 32.2612 195.221 32.6771L197.559 38.2029C199.35 37.4454 200.891 36.3319 201.996 34.7776L197.105 31.3024ZM195.202 32.6854C194.291 33.0782 193.124 33.32 191.63 33.32V39.32C193.763 39.32 195.769 38.9751 197.579 38.1946L195.202 32.6854Z" fill="#0069FF" mask="url(#path-2-outside-1_4078_457)"/>
</svg>
